<mxfile host="app.diagrams.net" modified="2023-05-16T22:36:59.540Z" agent="Mozilla/5.0 (X11; Ubuntu; Linux x86_64; rv:109.0) Gecko/20100101 Firefox/113.0" etag="C1ZRIMj5rmtd_-zJfmzE" version="21.1.4" type="github">
  <diagram id="R2lEEEUBdFMjLlhIrx00" name="Page-1">
    <mxGraphModel dx="5130" dy="3088" grid="1" gridSize="10" guides="1" tooltips="1" connect="1" arrows="1" fold="1" page="1" pageScale="1" pageWidth="850" pageHeight="1100" math="0" shadow="0" extFonts="Permanent Marker^https://fonts.googleapis.com/css?family=Permanent+Marker">
      <root>
        <mxCell id="0" />
        <mxCell id="1" parent="0" />
        <mxCell id="yfBjnqdeHr14PMCk5z5g-1" value="Nalog" style="whiteSpace=wrap;html=1;align=center;" parent="1" vertex="1">
          <mxGeometry x="500" y="380" width="250" height="140" as="geometry" />
        </mxCell>
        <mxCell id="yfBjnqdeHr14PMCk5z5g-2" style="edgeStyle=orthogonalEdgeStyle;rounded=0;orthogonalLoop=1;jettySize=auto;html=1;exitX=0;exitY=0.5;exitDx=0;exitDy=0;entryX=1;entryY=0.25;entryDx=0;entryDy=0;" parent="1" source="RYUvUEmuBBPlDel3eegI-60" target="yfBjnqdeHr14PMCk5z5g-1" edge="1">
          <mxGeometry relative="1" as="geometry">
            <mxPoint x="635" y="130" as="sourcePoint" />
            <mxPoint x="635" y="360" as="targetPoint" />
            <Array as="points" />
          </mxGeometry>
        </mxCell>
        <mxCell id="yfBjnqdeHr14PMCk5z5g-3" value="(0, N)" style="edgeLabel;html=1;align=center;verticalAlign=middle;resizable=0;points=[];" parent="yfBjnqdeHr14PMCk5z5g-2" vertex="1" connectable="0">
          <mxGeometry x="0.3895" relative="1" as="geometry">
            <mxPoint y="-12" as="offset" />
          </mxGeometry>
        </mxCell>
        <mxCell id="yfBjnqdeHr14PMCk5z5g-4" value="ima prijatelja" style="edgeLabel;html=1;align=center;verticalAlign=middle;resizable=0;points=[];" parent="yfBjnqdeHr14PMCk5z5g-2" vertex="1" connectable="0">
          <mxGeometry x="0.6" y="1" relative="1" as="geometry">
            <mxPoint as="offset" />
          </mxGeometry>
        </mxCell>
        <mxCell id="yfBjnqdeHr14PMCk5z5g-5" style="edgeStyle=orthogonalEdgeStyle;rounded=0;orthogonalLoop=1;jettySize=auto;html=1;exitX=0.5;exitY=0;exitDx=0;exitDy=0;entryX=0.91;entryY=-0.002;entryDx=0;entryDy=0;entryPerimeter=0;" parent="1" source="RYUvUEmuBBPlDel3eegI-60" target="yfBjnqdeHr14PMCk5z5g-1" edge="1">
          <mxGeometry relative="1" as="geometry">
            <mxPoint x="900" y="190" as="sourcePoint" />
            <mxPoint x="710" y="360" as="targetPoint" />
            <Array as="points">
              <mxPoint x="925" y="280" />
              <mxPoint x="720" y="280" />
              <mxPoint x="720" y="360" />
              <mxPoint x="728" y="360" />
            </Array>
          </mxGeometry>
        </mxCell>
        <mxCell id="yfBjnqdeHr14PMCk5z5g-6" value="je prijatelj sa" style="edgeLabel;html=1;align=center;verticalAlign=middle;resizable=0;points=[];" parent="yfBjnqdeHr14PMCk5z5g-5" vertex="1" connectable="0">
          <mxGeometry x="0.7333" y="-2" relative="1" as="geometry">
            <mxPoint y="-12" as="offset" />
          </mxGeometry>
        </mxCell>
        <mxCell id="yfBjnqdeHr14PMCk5z5g-7" value="(0, N)" style="edgeLabel;html=1;align=center;verticalAlign=middle;resizable=0;points=[];" parent="yfBjnqdeHr14PMCk5z5g-5" vertex="1" connectable="0">
          <mxGeometry x="0.2667" relative="1" as="geometry">
            <mxPoint x="-15" y="30" as="offset" />
          </mxGeometry>
        </mxCell>
        <mxCell id="yfBjnqdeHr14PMCk5z5g-9" value="" style="edgeStyle=orthogonalEdgeStyle;rounded=0;orthogonalLoop=1;jettySize=auto;html=1;entryX=0.216;entryY=1.02;entryDx=0;entryDy=0;entryPerimeter=0;" parent="1" source="yfBjnqdeHr14PMCk5z5g-12" target="yfBjnqdeHr14PMCk5z5g-1" edge="1">
          <mxGeometry relative="1" as="geometry" />
        </mxCell>
        <mxCell id="yfBjnqdeHr14PMCk5z5g-10" value="(0, N)" style="edgeLabel;html=1;align=center;verticalAlign=middle;resizable=0;points=[];" parent="yfBjnqdeHr14PMCk5z5g-9" vertex="1" connectable="0">
          <mxGeometry x="0.3" y="-1" relative="1" as="geometry">
            <mxPoint as="offset" />
          </mxGeometry>
        </mxCell>
        <mxCell id="yfBjnqdeHr14PMCk5z5g-11" style="edgeStyle=orthogonalEdgeStyle;rounded=0;orthogonalLoop=1;jettySize=auto;html=1;entryX=0.25;entryY=0;entryDx=0;entryDy=0;" parent="1" source="yfBjnqdeHr14PMCk5z5g-12" target="yfBjnqdeHr14PMCk5z5g-19" edge="1">
          <mxGeometry relative="1" as="geometry" />
        </mxCell>
        <mxCell id="yfBjnqdeHr14PMCk5z5g-12" value="za" style="shape=rhombus;double=1;perimeter=rhombusPerimeter;whiteSpace=wrap;html=1;align=center;" parent="1" vertex="1">
          <mxGeometry x="520" y="618" width="70" height="40" as="geometry" />
        </mxCell>
        <mxCell id="yfBjnqdeHr14PMCk5z5g-13" style="edgeStyle=orthogonalEdgeStyle;rounded=0;orthogonalLoop=1;jettySize=auto;html=1;" parent="1" source="yfBjnqdeHr14PMCk5z5g-16" edge="1">
          <mxGeometry relative="1" as="geometry">
            <mxPoint x="635" y="521" as="targetPoint" />
            <Array as="points">
              <mxPoint x="635" y="521" />
            </Array>
          </mxGeometry>
        </mxCell>
        <mxCell id="yfBjnqdeHr14PMCk5z5g-14" value="(0, N)" style="edgeLabel;html=1;align=center;verticalAlign=middle;resizable=0;points=[];" parent="yfBjnqdeHr14PMCk5z5g-13" vertex="1" connectable="0">
          <mxGeometry x="0.3474" y="2" relative="1" as="geometry">
            <mxPoint x="2" y="-3" as="offset" />
          </mxGeometry>
        </mxCell>
        <mxCell id="yfBjnqdeHr14PMCk5z5g-15" style="edgeStyle=orthogonalEdgeStyle;rounded=0;orthogonalLoop=1;jettySize=auto;html=1;entryX=0.821;entryY=-0.025;entryDx=0;entryDy=0;entryPerimeter=0;" parent="1" target="yfBjnqdeHr14PMCk5z5g-19" edge="1">
          <mxGeometry relative="1" as="geometry">
            <mxPoint x="635" y="658" as="sourcePoint" />
          </mxGeometry>
        </mxCell>
        <mxCell id="yfBjnqdeHr14PMCk5z5g-16" value="od" style="shape=rhombus;double=1;perimeter=rhombusPerimeter;whiteSpace=wrap;html=1;align=center;" parent="1" vertex="1">
          <mxGeometry x="600" y="618" width="70" height="40" as="geometry" />
        </mxCell>
        <mxCell id="yfBjnqdeHr14PMCk5z5g-17" style="edgeStyle=orthogonalEdgeStyle;rounded=0;orthogonalLoop=1;jettySize=auto;html=1;entryX=0.5;entryY=0;entryDx=0;entryDy=0;" parent="1" source="yfBjnqdeHr14PMCk5z5g-19" target="yfBjnqdeHr14PMCk5z5g-20" edge="1">
          <mxGeometry relative="1" as="geometry">
            <Array as="points">
              <mxPoint x="550" y="788" />
              <mxPoint x="550" y="788" />
            </Array>
          </mxGeometry>
        </mxCell>
        <mxCell id="yfBjnqdeHr14PMCk5z5g-18" style="edgeStyle=orthogonalEdgeStyle;rounded=0;orthogonalLoop=1;jettySize=auto;html=1;exitX=0.75;exitY=1;exitDx=0;exitDy=0;entryX=0.5;entryY=0;entryDx=0;entryDy=0;" parent="1" source="yfBjnqdeHr14PMCk5z5g-19" edge="1">
          <mxGeometry relative="1" as="geometry">
            <mxPoint x="660" y="788" as="targetPoint" />
          </mxGeometry>
        </mxCell>
        <mxCell id="yfBjnqdeHr14PMCk5z5g-19" value="poruka" style="shape=ext;margin=3;double=1;whiteSpace=wrap;html=1;align=center;" parent="1" vertex="1">
          <mxGeometry x="520" y="708" width="140" height="40" as="geometry" />
        </mxCell>
        <mxCell id="yfBjnqdeHr14PMCk5z5g-20" value="&lt;span style=&quot;border-bottom: 1px dotted&quot;&gt;sequencer&lt;/span&gt;" style="ellipse;whiteSpace=wrap;html=1;align=center;" parent="1" vertex="1">
          <mxGeometry x="500" y="798" width="100" height="40" as="geometry" />
        </mxCell>
        <mxCell id="yfBjnqdeHr14PMCk5z5g-21" value="datum" style="ellipse;whiteSpace=wrap;html=1;align=center;" parent="1" vertex="1">
          <mxGeometry x="610" y="787.5" width="100" height="40" as="geometry" />
        </mxCell>
        <mxCell id="yfBjnqdeHr14PMCk5z5g-22" value="region" style="whiteSpace=wrap;html=1;align=center;" parent="1" vertex="1">
          <mxGeometry x="460" y="30" width="100" height="40" as="geometry" />
        </mxCell>
        <mxCell id="yfBjnqdeHr14PMCk5z5g-23" value="" style="edgeStyle=orthogonalEdgeStyle;rounded=0;orthogonalLoop=1;jettySize=auto;html=1;exitX=0.5;exitY=0;exitDx=0;exitDy=0;exitPerimeter=0;" parent="1" source="yfBjnqdeHr14PMCk5z5g-68" target="yfBjnqdeHr14PMCk5z5g-22" edge="1">
          <mxGeometry relative="1" as="geometry">
            <mxPoint x="510" y="150" as="sourcePoint" />
          </mxGeometry>
        </mxCell>
        <mxCell id="yfBjnqdeHr14PMCk5z5g-24" value="(0, N)" style="edgeLabel;html=1;align=center;verticalAlign=middle;resizable=0;points=[];" parent="yfBjnqdeHr14PMCk5z5g-23" vertex="1" connectable="0">
          <mxGeometry x="0.3048" y="2" relative="1" as="geometry">
            <mxPoint x="2" as="offset" />
          </mxGeometry>
        </mxCell>
        <mxCell id="yfBjnqdeHr14PMCk5z5g-25" style="edgeStyle=orthogonalEdgeStyle;rounded=0;orthogonalLoop=1;jettySize=auto;html=1;exitX=0.5;exitY=1;exitDx=0;exitDy=0;entryX=0.039;entryY=-0.038;entryDx=0;entryDy=0;entryPerimeter=0;" parent="1" source="yfBjnqdeHr14PMCk5z5g-68" target="yfBjnqdeHr14PMCk5z5g-1" edge="1">
          <mxGeometry relative="1" as="geometry">
            <mxPoint x="510" y="200" as="sourcePoint" />
            <mxPoint x="510" y="410" as="targetPoint" />
          </mxGeometry>
        </mxCell>
        <mxCell id="yfBjnqdeHr14PMCk5z5g-26" value="(1,1)" style="edgeLabel;html=1;align=center;verticalAlign=middle;resizable=0;points=[];" parent="yfBjnqdeHr14PMCk5z5g-25" vertex="1" connectable="0">
          <mxGeometry x="0.7072" relative="1" as="geometry">
            <mxPoint as="offset" />
          </mxGeometry>
        </mxCell>
        <mxCell id="yfBjnqdeHr14PMCk5z5g-27" value="" style="edgeStyle=orthogonalEdgeStyle;rounded=0;orthogonalLoop=1;jettySize=auto;html=1;entryX=0;entryY=0.5;entryDx=0;entryDy=0;exitX=1;exitY=0.5;exitDx=0;exitDy=0;" parent="1" source="yfBjnqdeHr14PMCk5z5g-44" target="2M90Gd991hqFJUde-eGh-128" edge="1">
          <mxGeometry relative="1" as="geometry">
            <mxPoint x="940" y="576.06" as="sourcePoint" />
            <mxPoint x="1005" y="631.0599999999995" as="targetPoint" />
          </mxGeometry>
        </mxCell>
        <mxCell id="yfBjnqdeHr14PMCk5z5g-28" value="(0, N)" style="edgeLabel;html=1;align=center;verticalAlign=middle;resizable=0;points=[];" parent="yfBjnqdeHr14PMCk5z5g-27" vertex="1" connectable="0">
          <mxGeometry x="0.2857" relative="1" as="geometry">
            <mxPoint as="offset" />
          </mxGeometry>
        </mxCell>
        <mxCell id="yfBjnqdeHr14PMCk5z5g-30" value="" style="edgeStyle=orthogonalEdgeStyle;rounded=0;orthogonalLoop=1;jettySize=auto;html=1;entryX=0.5;entryY=1;entryDx=0;entryDy=0;exitX=0.5;exitY=0;exitDx=0;exitDy=0;" parent="1" source="yfBjnqdeHr14PMCk5z5g-33" target="2M90Gd991hqFJUde-eGh-128" edge="1">
          <mxGeometry relative="1" as="geometry">
            <mxPoint x="1054.408823529412" y="752.5261437908498" as="sourcePoint" />
            <mxPoint x="1054.4088235294116" y="719.9999999999995" as="targetPoint" />
            <Array as="points">
              <mxPoint x="1054" y="651" />
            </Array>
          </mxGeometry>
        </mxCell>
        <mxCell id="yfBjnqdeHr14PMCk5z5g-31" value="(0, N)" style="edgeLabel;html=1;align=center;verticalAlign=middle;resizable=0;points=[];" parent="yfBjnqdeHr14PMCk5z5g-30" vertex="1" connectable="0">
          <mxGeometry x="0.2778" relative="1" as="geometry">
            <mxPoint x="16" y="-19" as="offset" />
          </mxGeometry>
        </mxCell>
        <mxCell id="yfBjnqdeHr14PMCk5z5g-32" value="" style="edgeStyle=orthogonalEdgeStyle;rounded=0;orthogonalLoop=1;jettySize=auto;html=1;" parent="1" source="yfBjnqdeHr14PMCk5z5g-33" target="yfBjnqdeHr14PMCk5z5g-34" edge="1">
          <mxGeometry relative="1" as="geometry" />
        </mxCell>
        <mxCell id="yfBjnqdeHr14PMCk5z5g-33" value="ima skin" style="shape=rhombus;double=1;perimeter=rhombusPerimeter;whiteSpace=wrap;html=1;align=center;" parent="1" vertex="1">
          <mxGeometry x="1010" y="757.5" width="90" height="40" as="geometry" />
        </mxCell>
        <mxCell id="2M90Gd991hqFJUde-eGh-112" style="edgeStyle=orthogonalEdgeStyle;rounded=0;orthogonalLoop=1;jettySize=auto;html=1;exitX=0.25;exitY=0;exitDx=0;exitDy=0;entryX=0.5;entryY=1;entryDx=0;entryDy=0;" parent="1" source="yfBjnqdeHr14PMCk5z5g-34" target="2M90Gd991hqFJUde-eGh-111" edge="1">
          <mxGeometry relative="1" as="geometry" />
        </mxCell>
        <mxCell id="RYUvUEmuBBPlDel3eegI-49" style="edgeStyle=none;shape=connector;rounded=0;orthogonalLoop=1;jettySize=auto;html=1;exitX=0.75;exitY=0;exitDx=0;exitDy=0;entryX=0.381;entryY=1.056;entryDx=0;entryDy=0;entryPerimeter=0;labelBackgroundColor=default;strokeColor=default;fontFamily=Helvetica;fontSize=11;fontColor=default;endArrow=none;endFill=0;" edge="1" parent="1" source="yfBjnqdeHr14PMCk5z5g-34" target="RYUvUEmuBBPlDel3eegI-48">
          <mxGeometry relative="1" as="geometry" />
        </mxCell>
        <mxCell id="yfBjnqdeHr14PMCk5z5g-34" value="skin" style="shape=ext;margin=3;double=1;whiteSpace=wrap;html=1;align=center;" parent="1" vertex="1">
          <mxGeometry x="1005" y="870" width="100" height="40" as="geometry" />
        </mxCell>
        <mxCell id="yfBjnqdeHr14PMCk5z5g-35" value="" style="edgeStyle=orthogonalEdgeStyle;rounded=0;orthogonalLoop=1;jettySize=auto;html=1;entryX=0.5;entryY=1;entryDx=0;entryDy=0;exitX=0.5;exitY=0;exitDx=0;exitDy=0;" parent="1" source="yfBjnqdeHr14PMCk5z5g-47" target="yfBjnqdeHr14PMCk5z5g-44" edge="1">
          <mxGeometry relative="1" as="geometry">
            <mxPoint x="900" y="675" as="sourcePoint" />
            <mxPoint x="900" y="620" as="targetPoint" />
          </mxGeometry>
        </mxCell>
        <mxCell id="yfBjnqdeHr14PMCk5z5g-36" value="(0, N)" style="edgeLabel;html=1;align=center;verticalAlign=middle;resizable=0;points=[];" parent="yfBjnqdeHr14PMCk5z5g-35" vertex="1" connectable="0">
          <mxGeometry x="0.2987" relative="1" as="geometry">
            <mxPoint as="offset" />
          </mxGeometry>
        </mxCell>
        <mxCell id="yfBjnqdeHr14PMCk5z5g-37" value="chroma" style="shape=ext;margin=3;double=1;whiteSpace=wrap;html=1;align=center;" parent="1" vertex="1">
          <mxGeometry x="1005" y="1050" width="100" height="40" as="geometry" />
        </mxCell>
        <mxCell id="yfBjnqdeHr14PMCk5z5g-38" value="" style="edgeStyle=orthogonalEdgeStyle;rounded=0;orthogonalLoop=1;jettySize=auto;html=1;" parent="1" source="yfBjnqdeHr14PMCk5z5g-41" target="yfBjnqdeHr14PMCk5z5g-34" edge="1">
          <mxGeometry relative="1" as="geometry" />
        </mxCell>
        <mxCell id="yfBjnqdeHr14PMCk5z5g-39" value="(0, N)" style="edgeLabel;html=1;align=center;verticalAlign=middle;resizable=0;points=[];" parent="yfBjnqdeHr14PMCk5z5g-38" vertex="1" connectable="0">
          <mxGeometry x="0.1806" relative="1" as="geometry">
            <mxPoint as="offset" />
          </mxGeometry>
        </mxCell>
        <mxCell id="yfBjnqdeHr14PMCk5z5g-40" value="" style="edgeStyle=orthogonalEdgeStyle;rounded=0;orthogonalLoop=1;jettySize=auto;html=1;" parent="1" source="yfBjnqdeHr14PMCk5z5g-41" target="yfBjnqdeHr14PMCk5z5g-37" edge="1">
          <mxGeometry relative="1" as="geometry" />
        </mxCell>
        <mxCell id="yfBjnqdeHr14PMCk5z5g-41" value="ima chromu" style="shape=rhombus;double=1;perimeter=rhombusPerimeter;whiteSpace=wrap;html=1;align=center;" parent="1" vertex="1">
          <mxGeometry x="1010" y="960" width="90" height="40" as="geometry" />
        </mxCell>
        <mxCell id="RYUvUEmuBBPlDel3eegI-14" style="edgeStyle=orthogonalEdgeStyle;rounded=0;orthogonalLoop=1;jettySize=auto;html=1;entryX=1;entryY=0.75;entryDx=0;entryDy=0;" parent="1" source="yfBjnqdeHr14PMCk5z5g-44" target="yfBjnqdeHr14PMCk5z5g-1" edge="1">
          <mxGeometry relative="1" as="geometry" />
        </mxCell>
        <mxCell id="RYUvUEmuBBPlDel3eegI-15" value="(0,N)" style="edgeLabel;html=1;align=center;verticalAlign=middle;resizable=0;points=[];" parent="RYUvUEmuBBPlDel3eegI-14" vertex="1" connectable="0">
          <mxGeometry x="0.6785" y="-1" relative="1" as="geometry">
            <mxPoint x="-11" y="1" as="offset" />
          </mxGeometry>
        </mxCell>
        <mxCell id="yfBjnqdeHr14PMCk5z5g-44" value="poseduje&lt;br style=&quot;border-color: var(--border-color);&quot;&gt;championa" style="shape=associativeEntity;whiteSpace=wrap;html=1;align=center;" parent="1" vertex="1">
          <mxGeometry x="860" y="606.06" width="80" height="50" as="geometry" />
        </mxCell>
        <mxCell id="yfBjnqdeHr14PMCk5z5g-45" style="edgeStyle=orthogonalEdgeStyle;rounded=0;orthogonalLoop=1;jettySize=auto;html=1;entryX=0;entryY=0.5;entryDx=0;entryDy=0;" parent="1" source="yfBjnqdeHr14PMCk5z5g-47" target="yfBjnqdeHr14PMCk5z5g-34" edge="1">
          <mxGeometry relative="1" as="geometry" />
        </mxCell>
        <mxCell id="yfBjnqdeHr14PMCk5z5g-46" value="(0, N)" style="edgeLabel;html=1;align=center;verticalAlign=middle;resizable=0;points=[];" parent="yfBjnqdeHr14PMCk5z5g-45" vertex="1" connectable="0">
          <mxGeometry x="0.3725" relative="1" as="geometry">
            <mxPoint as="offset" />
          </mxGeometry>
        </mxCell>
        <mxCell id="yfBjnqdeHr14PMCk5z5g-47" value="poseduje&lt;br style=&quot;border-color: var(--border-color);&quot;&gt;skin" style="shape=associativeEntity;whiteSpace=wrap;html=1;align=center;" parent="1" vertex="1">
          <mxGeometry x="860" y="860" width="80" height="50" as="geometry" />
        </mxCell>
        <mxCell id="yfBjnqdeHr14PMCk5z5g-48" style="edgeStyle=orthogonalEdgeStyle;rounded=0;orthogonalLoop=1;jettySize=auto;html=1;entryX=0;entryY=0.5;entryDx=0;entryDy=0;exitX=1;exitY=0.5;exitDx=0;exitDy=0;" parent="1" source="yfBjnqdeHr14PMCk5z5g-88" target="yfBjnqdeHr14PMCk5z5g-37" edge="1">
          <mxGeometry relative="1" as="geometry">
            <mxPoint x="940" y="850" as="sourcePoint" />
          </mxGeometry>
        </mxCell>
        <mxCell id="yfBjnqdeHr14PMCk5z5g-49" value="(0, N)" style="edgeLabel;html=1;align=center;verticalAlign=middle;resizable=0;points=[];" parent="yfBjnqdeHr14PMCk5z5g-48" vertex="1" connectable="0">
          <mxGeometry x="0.3897" relative="1" as="geometry">
            <mxPoint as="offset" />
          </mxGeometry>
        </mxCell>
        <mxCell id="yfBjnqdeHr14PMCk5z5g-50" value="" style="edgeStyle=orthogonalEdgeStyle;rounded=0;orthogonalLoop=1;jettySize=auto;html=1;exitX=0.5;exitY=0;exitDx=0;exitDy=0;" parent="1" source="yfBjnqdeHr14PMCk5z5g-88" target="yfBjnqdeHr14PMCk5z5g-47" edge="1">
          <mxGeometry relative="1" as="geometry">
            <mxPoint x="900" y="825" as="sourcePoint" />
          </mxGeometry>
        </mxCell>
        <mxCell id="yfBjnqdeHr14PMCk5z5g-51" value="(0, N)" style="edgeLabel;html=1;align=center;verticalAlign=middle;resizable=0;points=[];" parent="yfBjnqdeHr14PMCk5z5g-50" vertex="1" connectable="0">
          <mxGeometry x="0.6602" y="1" relative="1" as="geometry">
            <mxPoint x="1" y="9" as="offset" />
          </mxGeometry>
        </mxCell>
        <mxCell id="yfBjnqdeHr14PMCk5z5g-52" value="" style="edgeStyle=orthogonalEdgeStyle;rounded=0;orthogonalLoop=1;jettySize=auto;html=1;" parent="1" source="yfBjnqdeHr14PMCk5z5g-55" target="yfBjnqdeHr14PMCk5z5g-57" edge="1">
          <mxGeometry relative="1" as="geometry" />
        </mxCell>
        <mxCell id="yfBjnqdeHr14PMCk5z5g-53" style="edgeStyle=orthogonalEdgeStyle;rounded=0;orthogonalLoop=1;jettySize=auto;html=1;entryX=0.028;entryY=1.01;entryDx=0;entryDy=0;entryPerimeter=0;" parent="1" source="yfBjnqdeHr14PMCk5z5g-55" target="yfBjnqdeHr14PMCk5z5g-1" edge="1">
          <mxGeometry relative="1" as="geometry">
            <mxPoint x="510" y="530" as="targetPoint" />
          </mxGeometry>
        </mxCell>
        <mxCell id="yfBjnqdeHr14PMCk5z5g-54" value="(0, N)" style="edgeLabel;html=1;align=center;verticalAlign=middle;resizable=0;points=[];" parent="yfBjnqdeHr14PMCk5z5g-53" vertex="1" connectable="0">
          <mxGeometry x="0.3333" y="1" relative="1" as="geometry">
            <mxPoint y="-14" as="offset" />
          </mxGeometry>
        </mxCell>
        <mxCell id="yfBjnqdeHr14PMCk5z5g-55" value="imao" style="shape=rhombus;double=1;perimeter=rhombusPerimeter;whiteSpace=wrap;html=1;align=center;" parent="1" vertex="1">
          <mxGeometry x="430" y="613" width="80" height="50" as="geometry" />
        </mxCell>
        <mxCell id="yfBjnqdeHr14PMCk5z5g-56" value="" style="edgeStyle=orthogonalEdgeStyle;rounded=0;orthogonalLoop=1;jettySize=auto;html=1;" parent="1" source="yfBjnqdeHr14PMCk5z5g-57" target="yfBjnqdeHr14PMCk5z5g-58" edge="1">
          <mxGeometry relative="1" as="geometry" />
        </mxCell>
        <mxCell id="yfBjnqdeHr14PMCk5z5g-57" value="summoner name" style="shape=ext;margin=3;double=1;whiteSpace=wrap;html=1;align=center;" parent="1" vertex="1">
          <mxGeometry x="390" y="708" width="100" height="40" as="geometry" />
        </mxCell>
        <mxCell id="yfBjnqdeHr14PMCk5z5g-58" value="&lt;span style=&quot;border-bottom: 1px dotted&quot;&gt;datum pocetka&lt;/span&gt;" style="ellipse;whiteSpace=wrap;html=1;align=center;" parent="1" vertex="1">
          <mxGeometry x="380" y="798" width="100" height="40" as="geometry" />
        </mxCell>
        <mxCell id="yfBjnqdeHr14PMCk5z5g-59" style="edgeStyle=orthogonalEdgeStyle;rounded=0;orthogonalLoop=1;jettySize=auto;html=1;exitX=0.5;exitY=0;exitDx=0;exitDy=0;entryX=-0.002;entryY=0.133;entryDx=0;entryDy=0;entryPerimeter=0;" parent="1" source="yfBjnqdeHr14PMCk5z5g-65" target="yfBjnqdeHr14PMCk5z5g-1" edge="1">
          <mxGeometry relative="1" as="geometry">
            <mxPoint x="260" y="410" as="sourcePoint" />
            <mxPoint x="480" y="445" as="targetPoint" />
            <Array as="points">
              <mxPoint x="300" y="400" />
              <mxPoint x="500" y="400" />
            </Array>
          </mxGeometry>
        </mxCell>
        <mxCell id="yfBjnqdeHr14PMCk5z5g-60" value="primio" style="edgeLabel;html=1;align=center;verticalAlign=middle;resizable=0;points=[];" parent="yfBjnqdeHr14PMCk5z5g-59" vertex="1" connectable="0">
          <mxGeometry x="0.4949" y="1" relative="1" as="geometry">
            <mxPoint x="14" as="offset" />
          </mxGeometry>
        </mxCell>
        <mxCell id="yfBjnqdeHr14PMCk5z5g-61" value="(0, N)" style="edgeLabel;html=1;align=center;verticalAlign=middle;resizable=0;points=[];" parent="yfBjnqdeHr14PMCk5z5g-59" vertex="1" connectable="0">
          <mxGeometry x="0.1634" y="-2" relative="1" as="geometry">
            <mxPoint as="offset" />
          </mxGeometry>
        </mxCell>
        <mxCell id="yfBjnqdeHr14PMCk5z5g-62" style="edgeStyle=orthogonalEdgeStyle;rounded=0;orthogonalLoop=1;jettySize=auto;html=1;entryX=0;entryY=0.4;entryDx=0;entryDy=0;entryPerimeter=0;" parent="1" source="yfBjnqdeHr14PMCk5z5g-65" target="yfBjnqdeHr14PMCk5z5g-1" edge="1">
          <mxGeometry relative="1" as="geometry">
            <mxPoint x="480" y="460" as="targetPoint" />
          </mxGeometry>
        </mxCell>
        <mxCell id="yfBjnqdeHr14PMCk5z5g-63" value="poslao" style="edgeLabel;html=1;align=center;verticalAlign=middle;resizable=0;points=[];" parent="yfBjnqdeHr14PMCk5z5g-62" vertex="1" connectable="0">
          <mxGeometry x="0.6083" relative="1" as="geometry">
            <mxPoint as="offset" />
          </mxGeometry>
        </mxCell>
        <mxCell id="yfBjnqdeHr14PMCk5z5g-64" value="(0, N)" style="edgeLabel;html=1;align=center;verticalAlign=middle;resizable=0;points=[];" parent="yfBjnqdeHr14PMCk5z5g-62" vertex="1" connectable="0">
          <mxGeometry x="-0.1417" y="1" relative="1" as="geometry">
            <mxPoint as="offset" />
          </mxGeometry>
        </mxCell>
        <mxCell id="yfBjnqdeHr14PMCk5z5g-65" value="report" style="rhombus;whiteSpace=wrap;html=1;" parent="1" vertex="1">
          <mxGeometry x="260" y="415" width="80" height="50" as="geometry" />
        </mxCell>
        <mxCell id="yfBjnqdeHr14PMCk5z5g-66" value="MATCHMAKING&lt;br&gt;samo nalozi iz istog regiona&lt;br&gt;(EUNE, EUW,...)" style="rounded=0;whiteSpace=wrap;html=1;" parent="1" vertex="1">
          <mxGeometry x="-110" y="-45" width="350" height="300" as="geometry" />
        </mxCell>
        <mxCell id="yfBjnqdeHr14PMCk5z5g-67" style="edgeStyle=orthogonalEdgeStyle;rounded=0;orthogonalLoop=1;jettySize=auto;html=1;entryX=1;entryY=0.783;entryDx=0;entryDy=0;entryPerimeter=0;" parent="1" source="yfBjnqdeHr14PMCk5z5g-68" target="yfBjnqdeHr14PMCk5z5g-66" edge="1">
          <mxGeometry relative="1" as="geometry" />
        </mxCell>
        <mxCell id="yfBjnqdeHr14PMCk5z5g-68" value="pripada" style="shape=associativeEntity;whiteSpace=wrap;html=1;align=center;" parent="1" vertex="1">
          <mxGeometry x="470" y="160" width="80" height="50" as="geometry" />
        </mxCell>
        <mxCell id="yfBjnqdeHr14PMCk5z5g-69" style="edgeStyle=orthogonalEdgeStyle;rounded=0;orthogonalLoop=1;jettySize=auto;html=1;entryX=0;entryY=0.75;entryDx=0;entryDy=0;" parent="1" source="yfBjnqdeHr14PMCk5z5g-73" target="yfBjnqdeHr14PMCk5z5g-1" edge="1">
          <mxGeometry relative="1" as="geometry">
            <Array as="points">
              <mxPoint x="300" y="485" />
            </Array>
          </mxGeometry>
        </mxCell>
        <mxCell id="yfBjnqdeHr14PMCk5z5g-70" value="(0, N)" style="edgeLabel;html=1;align=center;verticalAlign=middle;resizable=0;points=[];" parent="yfBjnqdeHr14PMCk5z5g-69" vertex="1" connectable="0">
          <mxGeometry x="0.7395" y="-1" relative="1" as="geometry">
            <mxPoint x="-16" y="-1" as="offset" />
          </mxGeometry>
        </mxCell>
        <mxCell id="yfBjnqdeHr14PMCk5z5g-71" value="" style="edgeStyle=orthogonalEdgeStyle;rounded=0;orthogonalLoop=1;jettySize=auto;html=1;" parent="1" source="yfBjnqdeHr14PMCk5z5g-73" target="yfBjnqdeHr14PMCk5z5g-74" edge="1">
          <mxGeometry relative="1" as="geometry" />
        </mxCell>
        <mxCell id="yfBjnqdeHr14PMCk5z5g-72" value="(0, N)" style="edgeLabel;html=1;align=center;verticalAlign=middle;resizable=0;points=[];" parent="yfBjnqdeHr14PMCk5z5g-71" vertex="1" connectable="0">
          <mxGeometry x="0.2874" y="1" relative="1" as="geometry">
            <mxPoint as="offset" />
          </mxGeometry>
        </mxCell>
        <mxCell id="yfBjnqdeHr14PMCk5z5g-73" value="ulogovan" style="rhombus;whiteSpace=wrap;html=1;" parent="1" vertex="1">
          <mxGeometry x="260" y="490" width="80" height="50" as="geometry" />
        </mxCell>
        <mxCell id="yfBjnqdeHr14PMCk5z5g-74" value="IP adresa" style="whiteSpace=wrap;html=1;align=center;" parent="1" vertex="1">
          <mxGeometry x="70" y="495" width="100" height="40" as="geometry" />
        </mxCell>
        <mxCell id="yfBjnqdeHr14PMCk5z5g-75" value="" style="edgeStyle=orthogonalEdgeStyle;rounded=0;orthogonalLoop=1;jettySize=auto;html=1;entryX=0.5;entryY=1;entryDx=0;entryDy=0;" parent="1" source="yfBjnqdeHr14PMCk5z5g-79" target="yfBjnqdeHr14PMCk5z5g-90" edge="1">
          <mxGeometry relative="1" as="geometry">
            <mxPoint x="655" y="-170" as="targetPoint" />
          </mxGeometry>
        </mxCell>
        <mxCell id="yfBjnqdeHr14PMCk5z5g-76" style="edgeStyle=orthogonalEdgeStyle;rounded=0;orthogonalLoop=1;jettySize=auto;html=1;entryX=0.5;entryY=1;entryDx=0;entryDy=0;" parent="1" source="yfBjnqdeHr14PMCk5z5g-79" target="yfBjnqdeHr14PMCk5z5g-89" edge="1">
          <mxGeometry relative="1" as="geometry">
            <mxPoint x="750" y="50" as="targetPoint" />
          </mxGeometry>
        </mxCell>
        <mxCell id="yfBjnqdeHr14PMCk5z5g-77" style="edgeStyle=orthogonalEdgeStyle;rounded=0;orthogonalLoop=1;jettySize=auto;html=1;exitX=0.5;exitY=1;exitDx=0;exitDy=0;entryX=0.5;entryY=0;entryDx=0;entryDy=0;" parent="1" source="yfBjnqdeHr14PMCk5z5g-79" target="yfBjnqdeHr14PMCk5z5g-80" edge="1">
          <mxGeometry relative="1" as="geometry" />
        </mxCell>
        <mxCell id="yfBjnqdeHr14PMCk5z5g-78" value="(1,1)" style="edgeLabel;html=1;align=center;verticalAlign=middle;resizable=0;points=[];" parent="yfBjnqdeHr14PMCk5z5g-77" vertex="1" connectable="0">
          <mxGeometry x="0.2333" relative="1" as="geometry">
            <mxPoint as="offset" />
          </mxGeometry>
        </mxCell>
        <mxCell id="yfBjnqdeHr14PMCk5z5g-79" value="IS-A" style="shape=rhombus;double=1;perimeter=rhombusPerimeter;whiteSpace=wrap;html=1;align=center;" parent="1" vertex="1">
          <mxGeometry x="575" y="-100" width="90" height="50" as="geometry" />
        </mxCell>
        <mxCell id="yfBjnqdeHr14PMCk5z5g-80" value="komanda" style="whiteSpace=wrap;html=1;align=center;" parent="1" vertex="1">
          <mxGeometry x="570" y="80" width="100" height="40" as="geometry" />
        </mxCell>
        <mxCell id="yfBjnqdeHr14PMCk5z5g-83" style="edgeStyle=orthogonalEdgeStyle;rounded=0;orthogonalLoop=1;jettySize=auto;html=1;entryX=0.5;entryY=1;entryDx=0;entryDy=0;" parent="1" source="yfBjnqdeHr14PMCk5z5g-85" target="yfBjnqdeHr14PMCk5z5g-80" edge="1">
          <mxGeometry relative="1" as="geometry" />
        </mxCell>
        <mxCell id="yfBjnqdeHr14PMCk5z5g-84" value="(1,1)" style="edgeLabel;html=1;align=center;verticalAlign=middle;resizable=0;points=[];" parent="yfBjnqdeHr14PMCk5z5g-83" vertex="1" connectable="0">
          <mxGeometry x="0.7721" y="-1" relative="1" as="geometry">
            <mxPoint as="offset" />
          </mxGeometry>
        </mxCell>
        <mxCell id="RYUvUEmuBBPlDel3eegI-66" style="edgeStyle=orthogonalEdgeStyle;shape=connector;rounded=0;orthogonalLoop=1;jettySize=auto;html=1;entryX=0.481;entryY=-0.006;entryDx=0;entryDy=0;entryPerimeter=0;labelBackgroundColor=default;strokeColor=default;fontFamily=Helvetica;fontSize=11;fontColor=default;endArrow=classic;endFill=1;" edge="1" parent="1" source="yfBjnqdeHr14PMCk5z5g-85" target="yfBjnqdeHr14PMCk5z5g-1">
          <mxGeometry relative="1" as="geometry" />
        </mxCell>
        <mxCell id="RYUvUEmuBBPlDel3eegI-67" value="(0, N)" style="edgeLabel;html=1;align=center;verticalAlign=middle;resizable=0;points=[];fontSize=11;fontFamily=Helvetica;fontColor=default;" connectable="0" vertex="1" parent="RYUvUEmuBBPlDel3eegI-66">
          <mxGeometry x="0.6736" y="-2" relative="1" as="geometry">
            <mxPoint x="2" y="-13" as="offset" />
          </mxGeometry>
        </mxCell>
        <mxCell id="yfBjnqdeHr14PMCk5z5g-85" value="ima" style="shape=rhombus;perimeter=rhombusPerimeter;whiteSpace=wrap;html=1;align=center;" parent="1" vertex="1">
          <mxGeometry x="575" y="230" width="90" height="50" as="geometry" />
        </mxCell>
        <mxCell id="RYUvUEmuBBPlDel3eegI-65" style="edgeStyle=orthogonalEdgeStyle;shape=connector;rounded=0;orthogonalLoop=1;jettySize=auto;html=1;entryX=0.728;entryY=0.006;entryDx=0;entryDy=0;entryPerimeter=0;labelBackgroundColor=default;strokeColor=default;fontFamily=Helvetica;fontSize=11;fontColor=default;endArrow=classic;endFill=1;" edge="1" parent="1" source="yfBjnqdeHr14PMCk5z5g-87" target="yfBjnqdeHr14PMCk5z5g-1">
          <mxGeometry relative="1" as="geometry" />
        </mxCell>
        <mxCell id="yfBjnqdeHr14PMCk5z5g-87" value="Transakcije" style="rounded=0;whiteSpace=wrap;html=1;" parent="1" vertex="1">
          <mxGeometry x="1275" y="-110" width="350" height="300" as="geometry" />
        </mxCell>
        <mxCell id="yfBjnqdeHr14PMCk5z5g-88" value="poseduje&lt;br&gt;chromu" style="shape=rhombus;perimeter=rhombusPerimeter;whiteSpace=wrap;html=1;align=center;" parent="1" vertex="1">
          <mxGeometry x="860" y="1045" width="80" height="50" as="geometry" />
        </mxCell>
        <mxCell id="yfBjnqdeHr14PMCk5z5g-89" value="mis" style="shape=ext;margin=3;double=1;whiteSpace=wrap;html=1;align=center;" parent="1" vertex="1">
          <mxGeometry x="475" y="-230" width="100" height="40" as="geometry" />
        </mxCell>
        <mxCell id="yfBjnqdeHr14PMCk5z5g-90" value="tastatura" style="shape=ext;margin=3;double=1;whiteSpace=wrap;html=1;align=center;" parent="1" vertex="1">
          <mxGeometry x="655" y="-230" width="100" height="40" as="geometry" />
        </mxCell>
        <mxCell id="2M90Gd991hqFJUde-eGh-115" style="edgeStyle=orthogonalEdgeStyle;rounded=0;orthogonalLoop=1;jettySize=auto;html=1;exitX=1;exitY=0.25;exitDx=0;exitDy=0;entryX=0;entryY=1;entryDx=0;entryDy=0;" parent="1" source="yfBjnqdeHr14PMCk5z5g-91" target="2M90Gd991hqFJUde-eGh-61" edge="1">
          <mxGeometry relative="1" as="geometry" />
        </mxCell>
        <mxCell id="2M90Gd991hqFJUde-eGh-116" style="edgeStyle=orthogonalEdgeStyle;rounded=0;orthogonalLoop=1;jettySize=auto;html=1;exitX=0.75;exitY=0;exitDx=0;exitDy=0;" parent="1" source="yfBjnqdeHr14PMCk5z5g-91" target="2M90Gd991hqFJUde-eGh-60" edge="1">
          <mxGeometry relative="1" as="geometry" />
        </mxCell>
        <mxCell id="2M90Gd991hqFJUde-eGh-118" style="edgeStyle=orthogonalEdgeStyle;rounded=0;orthogonalLoop=1;jettySize=auto;html=1;exitX=0.25;exitY=0;exitDx=0;exitDy=0;entryX=0.5;entryY=1;entryDx=0;entryDy=0;" parent="1" source="yfBjnqdeHr14PMCk5z5g-91" target="2M90Gd991hqFJUde-eGh-58" edge="1">
          <mxGeometry relative="1" as="geometry" />
        </mxCell>
        <mxCell id="2M90Gd991hqFJUde-eGh-119" style="edgeStyle=orthogonalEdgeStyle;rounded=0;orthogonalLoop=1;jettySize=auto;html=1;exitX=0;exitY=0;exitDx=0;exitDy=0;" parent="1" source="yfBjnqdeHr14PMCk5z5g-91" target="2M90Gd991hqFJUde-eGh-57" edge="1">
          <mxGeometry relative="1" as="geometry">
            <Array as="points">
              <mxPoint x="1590" y="775" />
              <mxPoint x="1525" y="775" />
            </Array>
          </mxGeometry>
        </mxCell>
        <mxCell id="yfBjnqdeHr14PMCk5z5g-91" value="predmet" style="whiteSpace=wrap;html=1;align=center;" parent="1" vertex="1">
          <mxGeometry x="1590" y="777.5" width="100" height="40" as="geometry" />
        </mxCell>
        <mxCell id="yfBjnqdeHr14PMCk5z5g-95" style="edgeStyle=orthogonalEdgeStyle;rounded=0;orthogonalLoop=1;jettySize=auto;html=1;entryX=0;entryY=0.5;entryDx=0;entryDy=0;exitX=1;exitY=0.5;exitDx=0;exitDy=0;" parent="1" source="yfBjnqdeHr14PMCk5z5g-94" target="yfBjnqdeHr14PMCk5z5g-91" edge="1">
          <mxGeometry relative="1" as="geometry">
            <mxPoint x="1559.9999999999995" y="797.5" as="sourcePoint" />
          </mxGeometry>
        </mxCell>
        <mxCell id="yfBjnqdeHr14PMCk5z5g-98" style="edgeStyle=orthogonalEdgeStyle;rounded=0;orthogonalLoop=1;jettySize=auto;html=1;entryX=1.01;entryY=0.632;entryDx=0;entryDy=0;entryPerimeter=0;" parent="1" source="yfBjnqdeHr14PMCk5z5g-94" target="yfBjnqdeHr14PMCk5z5g-34" edge="1">
          <mxGeometry relative="1" as="geometry">
            <Array as="points">
              <mxPoint x="1150" y="798" />
              <mxPoint x="1150" y="895" />
            </Array>
          </mxGeometry>
        </mxCell>
        <mxCell id="yfBjnqdeHr14PMCk5z5g-99" style="edgeStyle=orthogonalEdgeStyle;rounded=0;orthogonalLoop=1;jettySize=auto;html=1;entryX=1;entryY=0.5;entryDx=0;entryDy=0;" parent="1" source="yfBjnqdeHr14PMCk5z5g-94" target="2M90Gd991hqFJUde-eGh-128" edge="1">
          <mxGeometry relative="1" as="geometry">
            <mxPoint x="1104.3000000000006" y="701.7199999999998" as="targetPoint" />
            <Array as="points">
              <mxPoint x="1150" y="798" />
              <mxPoint x="1150" y="631" />
            </Array>
          </mxGeometry>
        </mxCell>
        <mxCell id="yfBjnqdeHr14PMCk5z5g-113" style="edgeStyle=orthogonalEdgeStyle;rounded=0;orthogonalLoop=1;jettySize=auto;html=1;exitX=0;exitY=0.5;exitDx=0;exitDy=0;entryX=1;entryY=0.5;entryDx=0;entryDy=0;" parent="1" source="yfBjnqdeHr14PMCk5z5g-94" target="yfBjnqdeHr14PMCk5z5g-37" edge="1">
          <mxGeometry relative="1" as="geometry">
            <Array as="points">
              <mxPoint x="1150" y="798" />
              <mxPoint x="1150" y="1070" />
            </Array>
          </mxGeometry>
        </mxCell>
        <mxCell id="yfBjnqdeHr14PMCk5z5g-115" style="edgeStyle=orthogonalEdgeStyle;rounded=0;orthogonalLoop=1;jettySize=auto;html=1;exitX=0;exitY=0.5;exitDx=0;exitDy=0;entryX=1;entryY=0.5;entryDx=0;entryDy=0;" parent="1" source="yfBjnqdeHr14PMCk5z5g-94" target="yfBjnqdeHr14PMCk5z5g-114" edge="1">
          <mxGeometry relative="1" as="geometry">
            <Array as="points">
              <mxPoint x="1150" y="798" />
              <mxPoint x="1150" y="1160" />
            </Array>
          </mxGeometry>
        </mxCell>
        <mxCell id="yfBjnqdeHr14PMCk5z5g-94" value="IS-A" style="shape=rhombus;double=1;perimeter=rhombusPerimeter;whiteSpace=wrap;html=1;align=center;" parent="1" vertex="1">
          <mxGeometry x="1370" y="767.5" width="110" height="60" as="geometry" />
        </mxCell>
        <mxCell id="RYUvUEmuBBPlDel3eegI-12" value="" style="edgeStyle=orthogonalEdgeStyle;rounded=0;orthogonalLoop=1;jettySize=auto;html=1;" parent="1" source="yfBjnqdeHr14PMCk5z5g-110" target="2M90Gd991hqFJUde-eGh-113" edge="1">
          <mxGeometry relative="1" as="geometry" />
        </mxCell>
        <mxCell id="yfBjnqdeHr14PMCk5z5g-110" value="emote" style="shape=ext;margin=3;double=1;whiteSpace=wrap;html=1;align=center;" parent="1" vertex="1">
          <mxGeometry x="1005" y="475" width="100" height="40" as="geometry" />
        </mxCell>
        <mxCell id="yfBjnqdeHr14PMCk5z5g-114" value="ward" style="shape=ext;margin=3;double=1;whiteSpace=wrap;html=1;align=center;" parent="1" vertex="1">
          <mxGeometry x="1005" y="1140" width="100" height="40" as="geometry" />
        </mxCell>
        <mxCell id="yfBjnqdeHr14PMCk5z5g-126" style="edgeStyle=orthogonalEdgeStyle;rounded=0;orthogonalLoop=1;jettySize=auto;html=1;entryX=0.5;entryY=1;entryDx=0;entryDy=0;strokeWidth=2;" parent="1" source="yfBjnqdeHr14PMCk5z5g-120" target="yfBjnqdeHr14PMCk5z5g-121" edge="1">
          <mxGeometry relative="1" as="geometry" />
        </mxCell>
        <mxCell id="2M90Gd991hqFJUde-eGh-1" style="edgeStyle=orthogonalEdgeStyle;rounded=0;orthogonalLoop=1;jettySize=auto;html=1;exitX=0;exitY=0.5;exitDx=0;exitDy=0;entryX=1;entryY=0.5;entryDx=0;entryDy=0;" parent="1" source="yfBjnqdeHr14PMCk5z5g-120" target="yfBjnqdeHr14PMCk5z5g-91" edge="1">
          <mxGeometry relative="1" as="geometry" />
        </mxCell>
        <mxCell id="yfBjnqdeHr14PMCk5z5g-120" value="kosta" style="shape=rhombus;double=1;perimeter=rhombusPerimeter;whiteSpace=wrap;html=1;align=center;" parent="1" vertex="1">
          <mxGeometry x="1820" y="767.5" width="120" height="60" as="geometry" />
        </mxCell>
        <mxCell id="2M90Gd991hqFJUde-eGh-90" style="edgeStyle=orthogonalEdgeStyle;rounded=0;orthogonalLoop=1;jettySize=auto;html=1;exitX=0.5;exitY=0;exitDx=0;exitDy=0;" parent="1" source="yfBjnqdeHr14PMCk5z5g-121" target="2M90Gd991hqFJUde-eGh-86" edge="1">
          <mxGeometry relative="1" as="geometry" />
        </mxCell>
        <mxCell id="2M90Gd991hqFJUde-eGh-92" style="edgeStyle=orthogonalEdgeStyle;rounded=0;orthogonalLoop=1;jettySize=auto;html=1;exitX=1;exitY=0.5;exitDx=0;exitDy=0;entryX=0;entryY=0.5;entryDx=0;entryDy=0;" parent="1" source="yfBjnqdeHr14PMCk5z5g-121" target="RYUvUEmuBBPlDel3eegI-1" edge="1">
          <mxGeometry relative="1" as="geometry">
            <mxPoint x="1979.5673670936849" y="686.8035934919399" as="targetPoint" />
          </mxGeometry>
        </mxCell>
        <mxCell id="yfBjnqdeHr14PMCk5z5g-121" value="cenovnik" style="shape=ext;margin=3;double=1;whiteSpace=wrap;html=1;align=center;" parent="1" vertex="1">
          <mxGeometry x="1830" y="670" width="100" height="40" as="geometry" />
        </mxCell>
        <mxCell id="yfBjnqdeHr14PMCk5z5g-131" value="(0,N)" style="text;html=1;align=center;verticalAlign=middle;resizable=0;points=[];autosize=1;strokeColor=none;fillColor=none;" parent="1" vertex="1">
          <mxGeometry x="1695" y="800" width="50" height="30" as="geometry" />
        </mxCell>
        <mxCell id="2M90Gd991hqFJUde-eGh-15" style="edgeStyle=orthogonalEdgeStyle;rounded=0;orthogonalLoop=1;jettySize=auto;html=1;exitX=0.5;exitY=1;exitDx=0;exitDy=0;entryX=0.5;entryY=0;entryDx=0;entryDy=0;" parent="1" edge="1">
          <mxGeometry relative="1" as="geometry">
            <mxPoint x="1640" y="450" as="sourcePoint" />
            <mxPoint x="1640" y="485" as="targetPoint" />
          </mxGeometry>
        </mxCell>
        <mxCell id="2M90Gd991hqFJUde-eGh-16" style="edgeStyle=orthogonalEdgeStyle;rounded=0;orthogonalLoop=1;jettySize=auto;html=1;entryX=0.5;entryY=1;entryDx=0;entryDy=0;strokeWidth=2;" parent="1" edge="1">
          <mxGeometry relative="1" as="geometry">
            <mxPoint x="1640" y="390" as="sourcePoint" />
            <mxPoint x="1640" y="340" as="targetPoint" />
          </mxGeometry>
        </mxCell>
        <mxCell id="2M90Gd991hqFJUde-eGh-6" style="edgeStyle=orthogonalEdgeStyle;rounded=0;orthogonalLoop=1;jettySize=auto;html=1;exitX=1;exitY=0.5;exitDx=0;exitDy=0;entryX=0;entryY=0.5;entryDx=0;entryDy=0;strokeWidth=2;" parent="1" source="2M90Gd991hqFJUde-eGh-9" target="2M90Gd991hqFJUde-eGh-23" edge="1">
          <mxGeometry relative="1" as="geometry">
            <mxPoint x="1120" y="505" as="sourcePoint" />
            <mxPoint x="1320" y="505" as="targetPoint" />
            <Array as="points">
              <mxPoint x="1260" y="450" />
              <mxPoint x="1260" y="506" />
              <mxPoint x="1590" y="506" />
            </Array>
          </mxGeometry>
        </mxCell>
        <mxCell id="2M90Gd991hqFJUde-eGh-7" style="edgeStyle=orthogonalEdgeStyle;rounded=0;orthogonalLoop=1;jettySize=auto;html=1;exitX=0;exitY=0.5;exitDx=0;exitDy=0;" parent="1" source="2M90Gd991hqFJUde-eGh-9" target="yfBjnqdeHr14PMCk5z5g-1" edge="1">
          <mxGeometry relative="1" as="geometry">
            <mxPoint x="1000" y="505" as="sourcePoint" />
          </mxGeometry>
        </mxCell>
        <mxCell id="RYUvUEmuBBPlDel3eegI-8" value="(0, N)" style="edgeLabel;html=1;align=center;verticalAlign=middle;resizable=0;points=[];" parent="2M90Gd991hqFJUde-eGh-7" vertex="1" connectable="0">
          <mxGeometry x="0.7796" y="3" relative="1" as="geometry">
            <mxPoint as="offset" />
          </mxGeometry>
        </mxCell>
        <mxCell id="2M90Gd991hqFJUde-eGh-71" style="edgeStyle=orthogonalEdgeStyle;rounded=0;orthogonalLoop=1;jettySize=auto;html=1;exitX=0.25;exitY=0;exitDx=0;exitDy=0;" parent="1" source="2M90Gd991hqFJUde-eGh-4" edge="1">
          <mxGeometry relative="1" as="geometry">
            <mxPoint x="1915.0588235294117" y="459.99999999999955" as="targetPoint" />
          </mxGeometry>
        </mxCell>
        <mxCell id="2M90Gd991hqFJUde-eGh-72" style="edgeStyle=orthogonalEdgeStyle;rounded=0;orthogonalLoop=1;jettySize=auto;html=1;exitX=0.75;exitY=0;exitDx=0;exitDy=0;" parent="1" source="2M90Gd991hqFJUde-eGh-4" edge="1">
          <mxGeometry relative="1" as="geometry">
            <mxPoint x="1964.4705882352941" y="459.99999999999955" as="targetPoint" />
          </mxGeometry>
        </mxCell>
        <mxCell id="2M90Gd991hqFJUde-eGh-4" value="nacin placanja" style="whiteSpace=wrap;html=1;align=center;" parent="1" vertex="1">
          <mxGeometry x="1890" y="485" width="100" height="40" as="geometry" />
        </mxCell>
        <mxCell id="2M90Gd991hqFJUde-eGh-10" style="edgeStyle=orthogonalEdgeStyle;rounded=0;orthogonalLoop=1;jettySize=auto;html=1;exitX=0.5;exitY=0;exitDx=0;exitDy=0;entryX=0.5;entryY=1;entryDx=0;entryDy=0;strokeWidth=2;" parent="1" source="2M90Gd991hqFJUde-eGh-8" edge="1">
          <mxGeometry relative="1" as="geometry">
            <mxPoint x="1640" y="525" as="targetPoint" />
          </mxGeometry>
        </mxCell>
        <mxCell id="2M90Gd991hqFJUde-eGh-11" style="edgeStyle=orthogonalEdgeStyle;rounded=0;orthogonalLoop=1;jettySize=auto;html=1;exitX=0.5;exitY=1;exitDx=0;exitDy=0;entryX=0.5;entryY=0;entryDx=0;entryDy=0;" parent="1" source="2M90Gd991hqFJUde-eGh-8" target="yfBjnqdeHr14PMCk5z5g-91" edge="1">
          <mxGeometry relative="1" as="geometry" />
        </mxCell>
        <mxCell id="RYUvUEmuBBPlDel3eegI-19" value="(0,N)" style="edgeLabel;html=1;align=center;verticalAlign=middle;resizable=0;points=[];" connectable="0" vertex="1" parent="2M90Gd991hqFJUde-eGh-11">
          <mxGeometry x="0.3187" relative="1" as="geometry">
            <mxPoint as="offset" />
          </mxGeometry>
        </mxCell>
        <mxCell id="2M90Gd991hqFJUde-eGh-8" value="kupljen" style="shape=rhombus;double=1;perimeter=rhombusPerimeter;whiteSpace=wrap;html=1;align=center;" parent="1" vertex="1">
          <mxGeometry x="1580" y="620" width="120" height="60" as="geometry" />
        </mxCell>
        <mxCell id="2M90Gd991hqFJUde-eGh-9" value="kupio" style="shape=rhombus;double=1;perimeter=rhombusPerimeter;whiteSpace=wrap;html=1;align=center;" parent="1" vertex="1">
          <mxGeometry x="1100" y="420" width="120" height="60" as="geometry" />
        </mxCell>
        <mxCell id="2M90Gd991hqFJUde-eGh-13" style="edgeStyle=orthogonalEdgeStyle;rounded=0;orthogonalLoop=1;jettySize=auto;html=1;exitX=1;exitY=0.5;exitDx=0;exitDy=0;entryX=0;entryY=0.5;entryDx=0;entryDy=0;" parent="1" source="RYUvUEmuBBPlDel3eegI-31" target="2M90Gd991hqFJUde-eGh-4" edge="1">
          <mxGeometry relative="1" as="geometry">
            <mxPoint x="1850" y="505" as="sourcePoint" />
          </mxGeometry>
        </mxCell>
        <mxCell id="RYUvUEmuBBPlDel3eegI-32" value="(0,N)" style="edgeLabel;html=1;align=center;verticalAlign=middle;resizable=0;points=[];" connectable="0" vertex="1" parent="2M90Gd991hqFJUde-eGh-13">
          <mxGeometry x="-0.2151" relative="1" as="geometry">
            <mxPoint as="offset" />
          </mxGeometry>
        </mxCell>
        <mxCell id="RYUvUEmuBBPlDel3eegI-20" value="" style="edgeStyle=orthogonalEdgeStyle;rounded=0;orthogonalLoop=1;jettySize=auto;html=1;exitX=0;exitY=0.5;exitDx=0;exitDy=0;" edge="1" parent="1" source="RYUvUEmuBBPlDel3eegI-31" target="2M90Gd991hqFJUde-eGh-23">
          <mxGeometry relative="1" as="geometry">
            <mxPoint x="1730" y="505" as="sourcePoint" />
          </mxGeometry>
        </mxCell>
        <mxCell id="RYUvUEmuBBPlDel3eegI-21" value="(1,1)" style="edgeLabel;html=1;align=center;verticalAlign=middle;resizable=0;points=[];" connectable="0" vertex="1" parent="RYUvUEmuBBPlDel3eegI-20">
          <mxGeometry x="0.286" y="1" relative="1" as="geometry">
            <mxPoint x="6" y="-1" as="offset" />
          </mxGeometry>
        </mxCell>
        <mxCell id="2M90Gd991hqFJUde-eGh-18" value="(1,1)" style="text;html=1;align=center;verticalAlign=middle;resizable=0;points=[];autosize=1;strokeColor=none;fillColor=none;" parent="1" vertex="1">
          <mxGeometry x="1140" y="767.5" width="50" height="30" as="geometry" />
        </mxCell>
        <mxCell id="2M90Gd991hqFJUde-eGh-20" value="(0,N)" style="text;html=1;align=center;verticalAlign=middle;resizable=0;points=[];autosize=1;strokeColor=none;fillColor=none;" parent="1" vertex="1">
          <mxGeometry x="1630" y="455" width="50" height="30" as="geometry" />
        </mxCell>
        <mxCell id="2M90Gd991hqFJUde-eGh-64" style="rounded=0;orthogonalLoop=1;jettySize=auto;html=1;exitX=0.75;exitY=1;exitDx=0;exitDy=0;endArrow=none;endFill=0;" parent="1" source="2M90Gd991hqFJUde-eGh-23" edge="1">
          <mxGeometry relative="1" as="geometry">
            <mxPoint x="1680" y="569.9999999999995" as="targetPoint" />
          </mxGeometry>
        </mxCell>
        <mxCell id="2M90Gd991hqFJUde-eGh-65" style="rounded=0;orthogonalLoop=1;jettySize=auto;html=1;exitX=0.25;exitY=1;exitDx=0;exitDy=0;endArrow=none;endFill=0;" parent="1" source="2M90Gd991hqFJUde-eGh-23" edge="1">
          <mxGeometry relative="1" as="geometry">
            <mxPoint x="1600" y="569.9999999999995" as="targetPoint" />
          </mxGeometry>
        </mxCell>
        <mxCell id="2M90Gd991hqFJUde-eGh-23" value="kupovina" style="shape=ext;margin=3;double=1;whiteSpace=wrap;html=1;align=center;" parent="1" vertex="1">
          <mxGeometry x="1590" y="485" width="100" height="40" as="geometry" />
        </mxCell>
        <mxCell id="2M90Gd991hqFJUde-eGh-24" value="ostavljena" style="shape=rhombus;double=1;perimeter=rhombusPerimeter;whiteSpace=wrap;html=1;align=center;" parent="1" vertex="1">
          <mxGeometry x="1580" y="390" width="120" height="60" as="geometry" />
        </mxCell>
        <mxCell id="2M90Gd991hqFJUde-eGh-75" style="edgeStyle=orthogonalEdgeStyle;rounded=0;orthogonalLoop=1;jettySize=auto;html=1;exitX=0.25;exitY=0;exitDx=0;exitDy=0;" parent="1" source="2M90Gd991hqFJUde-eGh-25" edge="1">
          <mxGeometry relative="1" as="geometry">
            <mxPoint x="1615.0588235294117" y="280" as="targetPoint" />
          </mxGeometry>
        </mxCell>
        <mxCell id="2M90Gd991hqFJUde-eGh-81" style="edgeStyle=orthogonalEdgeStyle;rounded=0;orthogonalLoop=1;jettySize=auto;html=1;exitX=0.75;exitY=0;exitDx=0;exitDy=0;entryX=0.337;entryY=0.938;entryDx=0;entryDy=0;entryPerimeter=0;" parent="1" source="2M90Gd991hqFJUde-eGh-25" target="2M90Gd991hqFJUde-eGh-77" edge="1">
          <mxGeometry relative="1" as="geometry" />
        </mxCell>
        <mxCell id="2M90Gd991hqFJUde-eGh-82" style="edgeStyle=orthogonalEdgeStyle;rounded=0;orthogonalLoop=1;jettySize=auto;html=1;exitX=1;exitY=0.25;exitDx=0;exitDy=0;entryX=0;entryY=1;entryDx=0;entryDy=0;" parent="1" source="2M90Gd991hqFJUde-eGh-25" target="2M90Gd991hqFJUde-eGh-78" edge="1">
          <mxGeometry relative="1" as="geometry" />
        </mxCell>
        <mxCell id="2M90Gd991hqFJUde-eGh-83" style="edgeStyle=orthogonalEdgeStyle;rounded=0;orthogonalLoop=1;jettySize=auto;html=1;exitX=1;exitY=0.5;exitDx=0;exitDy=0;entryX=0;entryY=0;entryDx=0;entryDy=0;" parent="1" source="2M90Gd991hqFJUde-eGh-25" target="2M90Gd991hqFJUde-eGh-79" edge="1">
          <mxGeometry relative="1" as="geometry" />
        </mxCell>
        <mxCell id="2M90Gd991hqFJUde-eGh-25" value="recenzija" style="shape=ext;margin=3;double=1;whiteSpace=wrap;html=1;align=center;" parent="1" vertex="1">
          <mxGeometry x="1590" y="300" width="100" height="40" as="geometry" />
        </mxCell>
        <mxCell id="RYUvUEmuBBPlDel3eegI-10" value="" style="edgeStyle=orthogonalEdgeStyle;rounded=0;orthogonalLoop=1;jettySize=auto;html=1;exitX=0.501;exitY=-0.053;exitDx=0;exitDy=0;exitPerimeter=0;" parent="1" source="RYUvUEmuBBPlDel3eegI-17" target="yfBjnqdeHr14PMCk5z5g-110" edge="1">
          <mxGeometry relative="1" as="geometry">
            <mxPoint x="1055" y="535" as="sourcePoint" />
          </mxGeometry>
        </mxCell>
        <mxCell id="RYUvUEmuBBPlDel3eegI-11" value="" style="edgeStyle=orthogonalEdgeStyle;rounded=0;orthogonalLoop=1;jettySize=auto;html=1;exitX=0.5;exitY=1;exitDx=0;exitDy=0;" parent="1" source="RYUvUEmuBBPlDel3eegI-17" target="2M90Gd991hqFJUde-eGh-128" edge="1">
          <mxGeometry relative="1" as="geometry">
            <mxPoint x="1055" y="585" as="sourcePoint" />
          </mxGeometry>
        </mxCell>
        <mxCell id="RYUvUEmuBBPlDel3eegI-16" value="(0, N)" style="edgeLabel;html=1;align=center;verticalAlign=middle;resizable=0;points=[];" connectable="0" vertex="1" parent="RYUvUEmuBBPlDel3eegI-11">
          <mxGeometry x="-0.7358" relative="1" as="geometry">
            <mxPoint y="4" as="offset" />
          </mxGeometry>
        </mxCell>
        <mxCell id="2M90Gd991hqFJUde-eGh-48" value="Game" style="whiteSpace=wrap;html=1;align=center;" parent="1" vertex="1">
          <mxGeometry x="-180" y="650" width="140" height="70" as="geometry" />
        </mxCell>
        <mxCell id="2M90Gd991hqFJUde-eGh-57" value="&lt;u&gt;ID&lt;/u&gt;" style="ellipse;whiteSpace=wrap;html=1;align=center;" parent="1" vertex="1">
          <mxGeometry x="1490" y="720" width="70" height="30" as="geometry" />
        </mxCell>
        <mxCell id="2M90Gd991hqFJUde-eGh-58" value="naziv" style="ellipse;whiteSpace=wrap;html=1;align=center;" parent="1" vertex="1">
          <mxGeometry x="1560" y="710" width="70" height="30" as="geometry" />
        </mxCell>
        <mxCell id="2M90Gd991hqFJUde-eGh-60" value="opis" style="ellipse;whiteSpace=wrap;html=1;align=center;" parent="1" vertex="1">
          <mxGeometry x="1665" y="713" width="70" height="30" as="geometry" />
        </mxCell>
        <mxCell id="2M90Gd991hqFJUde-eGh-61" value="tip" style="ellipse;whiteSpace=wrap;html=1;align=center;" parent="1" vertex="1">
          <mxGeometry x="1720" y="747.5" width="70" height="30" as="geometry" />
        </mxCell>
        <mxCell id="RYUvUEmuBBPlDel3eegI-9" style="rounded=0;orthogonalLoop=1;jettySize=auto;html=1;entryX=0.145;entryY=0;entryDx=0;entryDy=0;entryPerimeter=0;endArrow=none;endFill=0;" parent="1" source="2M90Gd991hqFJUde-eGh-67" target="2M90Gd991hqFJUde-eGh-23" edge="1">
          <mxGeometry relative="1" as="geometry" />
        </mxCell>
        <mxCell id="2M90Gd991hqFJUde-eGh-67" value="ID" style="ellipse;whiteSpace=wrap;html=1;align=center;fontStyle=4;" parent="1" vertex="1">
          <mxGeometry x="1460" y="455" width="75" height="25" as="geometry" />
        </mxCell>
        <mxCell id="2M90Gd991hqFJUde-eGh-69" value="datum" style="ellipse;whiteSpace=wrap;html=1;align=center;" parent="1" vertex="1">
          <mxGeometry x="1550" y="570" width="80" height="25" as="geometry" />
        </mxCell>
        <mxCell id="2M90Gd991hqFJUde-eGh-70" value="cijena" style="ellipse;whiteSpace=wrap;html=1;align=center;" parent="1" vertex="1">
          <mxGeometry x="1660" y="570" width="80" height="25" as="geometry" />
        </mxCell>
        <mxCell id="2M90Gd991hqFJUde-eGh-73" value="&lt;u&gt;ID&lt;/u&gt;" style="ellipse;whiteSpace=wrap;html=1;align=center;" parent="1" vertex="1">
          <mxGeometry x="1860" y="437.5" width="80" height="25" as="geometry" />
        </mxCell>
        <mxCell id="2M90Gd991hqFJUde-eGh-74" value="naziv" style="ellipse;whiteSpace=wrap;html=1;align=center;" parent="1" vertex="1">
          <mxGeometry x="1940" y="437.5" width="80" height="25" as="geometry" />
        </mxCell>
        <mxCell id="2M90Gd991hqFJUde-eGh-76" value="ID" style="ellipse;whiteSpace=wrap;html=1;align=center;fontStyle=4;" parent="1" vertex="1">
          <mxGeometry x="1570" y="260" width="70" height="20" as="geometry" />
        </mxCell>
        <mxCell id="2M90Gd991hqFJUde-eGh-77" value="tekst" style="ellipse;whiteSpace=wrap;html=1;align=center;" parent="1" vertex="1">
          <mxGeometry x="1655" y="260" width="70" height="20" as="geometry" />
        </mxCell>
        <mxCell id="2M90Gd991hqFJUde-eGh-78" value="ocjena" style="ellipse;whiteSpace=wrap;html=1;align=center;" parent="1" vertex="1">
          <mxGeometry x="1720" y="290" width="70" height="20" as="geometry" />
        </mxCell>
        <mxCell id="2M90Gd991hqFJUde-eGh-79" value="datum" style="ellipse;whiteSpace=wrap;html=1;align=center;" parent="1" vertex="1">
          <mxGeometry x="1720" y="325" width="70" height="20" as="geometry" />
        </mxCell>
        <mxCell id="2M90Gd991hqFJUde-eGh-86" value="Cena" style="ellipse;whiteSpace=wrap;html=1;align=center;" parent="1" vertex="1">
          <mxGeometry x="1840" y="613" width="60" height="25" as="geometry" />
        </mxCell>
        <mxCell id="2M90Gd991hqFJUde-eGh-111" value="naziv" style="ellipse;whiteSpace=wrap;html=1;align=center;" parent="1" vertex="1">
          <mxGeometry x="970" y="827.5" width="50" height="17" as="geometry" />
        </mxCell>
        <mxCell id="2M90Gd991hqFJUde-eGh-113" value="naziv" style="ellipse;whiteSpace=wrap;html=1;align=center;" parent="1" vertex="1">
          <mxGeometry x="910" y="485" width="65" height="30" as="geometry" />
        </mxCell>
        <mxCell id="2M90Gd991hqFJUde-eGh-125" style="edgeStyle=orthogonalEdgeStyle;rounded=0;orthogonalLoop=1;jettySize=auto;html=1;entryX=0.5;entryY=1;entryDx=0;entryDy=0;" parent="1" source="2M90Gd991hqFJUde-eGh-121" target="yfBjnqdeHr14PMCk5z5g-91" edge="1">
          <mxGeometry relative="1" as="geometry" />
        </mxCell>
        <mxCell id="2M90Gd991hqFJUde-eGh-126" style="edgeStyle=orthogonalEdgeStyle;rounded=0;orthogonalLoop=1;jettySize=auto;html=1;exitX=0.5;exitY=1;exitDx=0;exitDy=0;entryX=0.5;entryY=0;entryDx=0;entryDy=0;strokeWidth=2;" parent="1" source="2M90Gd991hqFJUde-eGh-121" target="2M90Gd991hqFJUde-eGh-122" edge="1">
          <mxGeometry relative="1" as="geometry" />
        </mxCell>
        <mxCell id="2M90Gd991hqFJUde-eGh-121" value="ima" style="shape=rhombus;double=1;perimeter=rhombusPerimeter;whiteSpace=wrap;html=1;align=center;" parent="1" vertex="1">
          <mxGeometry x="1580" y="890" width="120" height="60" as="geometry" />
        </mxCell>
        <mxCell id="2M90Gd991hqFJUde-eGh-137" style="edgeStyle=orthogonalEdgeStyle;rounded=0;orthogonalLoop=1;jettySize=auto;html=1;exitX=0;exitY=1;exitDx=0;exitDy=0;entryX=1;entryY=0.5;entryDx=0;entryDy=0;" parent="1" source="2M90Gd991hqFJUde-eGh-122" target="2M90Gd991hqFJUde-eGh-131" edge="1">
          <mxGeometry relative="1" as="geometry" />
        </mxCell>
        <mxCell id="2M90Gd991hqFJUde-eGh-138" style="edgeStyle=orthogonalEdgeStyle;rounded=0;orthogonalLoop=1;jettySize=auto;html=1;exitX=0;exitY=0;exitDx=0;exitDy=0;entryX=1;entryY=0.5;entryDx=0;entryDy=0;" parent="1" source="2M90Gd991hqFJUde-eGh-122" target="RYUvUEmuBBPlDel3eegI-4" edge="1">
          <mxGeometry relative="1" as="geometry">
            <Array as="points">
              <mxPoint x="1590" y="1005" />
            </Array>
            <mxPoint x="1540" y="1005" as="targetPoint" />
          </mxGeometry>
        </mxCell>
        <mxCell id="2M90Gd991hqFJUde-eGh-139" style="edgeStyle=orthogonalEdgeStyle;rounded=0;orthogonalLoop=1;jettySize=auto;html=1;exitX=0.5;exitY=1;exitDx=0;exitDy=0;entryX=0.5;entryY=0;entryDx=0;entryDy=0;" parent="1" source="2M90Gd991hqFJUde-eGh-122" target="2M90Gd991hqFJUde-eGh-132" edge="1">
          <mxGeometry relative="1" as="geometry" />
        </mxCell>
        <mxCell id="2M90Gd991hqFJUde-eGh-140" style="edgeStyle=orthogonalEdgeStyle;rounded=0;orthogonalLoop=1;jettySize=auto;html=1;exitX=1;exitY=1;exitDx=0;exitDy=0;entryX=0;entryY=0;entryDx=0;entryDy=0;" parent="1" source="2M90Gd991hqFJUde-eGh-122" target="2M90Gd991hqFJUde-eGh-133" edge="1">
          <mxGeometry relative="1" as="geometry">
            <Array as="points">
              <mxPoint x="1690" y="1040" />
              <mxPoint x="1744" y="1040" />
            </Array>
          </mxGeometry>
        </mxCell>
        <mxCell id="2M90Gd991hqFJUde-eGh-141" style="edgeStyle=orthogonalEdgeStyle;rounded=0;orthogonalLoop=1;jettySize=auto;html=1;exitX=1;exitY=0.25;exitDx=0;exitDy=0;entryX=0;entryY=0.5;entryDx=0;entryDy=0;" parent="1" source="2M90Gd991hqFJUde-eGh-122" target="RYUvUEmuBBPlDel3eegI-3" edge="1">
          <mxGeometry relative="1" as="geometry">
            <mxPoint x="1755" y="1025" as="targetPoint" />
          </mxGeometry>
        </mxCell>
        <mxCell id="2M90Gd991hqFJUde-eGh-122" value="popust" style="shape=ext;margin=3;double=1;whiteSpace=wrap;html=1;align=center;" parent="1" vertex="1">
          <mxGeometry x="1590" y="1010" width="100" height="40" as="geometry" />
        </mxCell>
        <mxCell id="2M90Gd991hqFJUde-eGh-127" value="(0,1)" style="text;html=1;align=center;verticalAlign=middle;resizable=0;points=[];autosize=1;strokeColor=none;fillColor=none;" parent="1" vertex="1">
          <mxGeometry x="1640" y="821" width="50" height="30" as="geometry" />
        </mxCell>
        <mxCell id="2M90Gd991hqFJUde-eGh-128" value="Champion" style="shape=ext;margin=3;double=1;whiteSpace=wrap;html=1;align=center;" parent="1" vertex="1">
          <mxGeometry x="1010" y="611.06" width="90" height="40" as="geometry" />
        </mxCell>
        <mxCell id="2M90Gd991hqFJUde-eGh-131" value="Naziv" style="ellipse;whiteSpace=wrap;html=1;align=center;" parent="1" vertex="1">
          <mxGeometry x="1480" y="1050" width="80" height="35" as="geometry" />
        </mxCell>
        <mxCell id="2M90Gd991hqFJUde-eGh-132" value="Prioritet" style="ellipse;whiteSpace=wrap;html=1;align=center;" parent="1" vertex="1">
          <mxGeometry x="1610" y="1070" width="70" height="30" as="geometry" />
        </mxCell>
        <mxCell id="2M90Gd991hqFJUde-eGh-133" value="Procenat popusta" style="ellipse;whiteSpace=wrap;html=1;align=center;" parent="1" vertex="1">
          <mxGeometry x="1735" y="1060" width="65" height="35" as="geometry" />
        </mxCell>
        <mxCell id="2M90Gd991hqFJUde-eGh-142" value="Item" style="whiteSpace=wrap;html=1;align=center;" parent="1" vertex="1">
          <mxGeometry x="95" y="1072" width="100" height="40" as="geometry" />
        </mxCell>
        <mxCell id="2M90Gd991hqFJUde-eGh-145" style="edgeStyle=orthogonalEdgeStyle;rounded=0;orthogonalLoop=1;jettySize=auto;html=1;exitX=1;exitY=0.5;exitDx=0;exitDy=0;entryX=1.029;entryY=1.057;entryDx=0;entryDy=0;entryPerimeter=0;" parent="1" source="2M90Gd991hqFJUde-eGh-143" target="2M90Gd991hqFJUde-eGh-150" edge="1">
          <mxGeometry relative="1" as="geometry">
            <Array as="points">
              <mxPoint x="126" y="1018" />
            </Array>
          </mxGeometry>
        </mxCell>
        <mxCell id="2M90Gd991hqFJUde-eGh-146" style="edgeStyle=orthogonalEdgeStyle;rounded=0;orthogonalLoop=1;jettySize=auto;html=1;exitX=0.5;exitY=1;exitDx=0;exitDy=0;entryX=0;entryY=0.5;entryDx=0;entryDy=0;" parent="1" source="2M90Gd991hqFJUde-eGh-143" target="2M90Gd991hqFJUde-eGh-142" edge="1">
          <mxGeometry relative="1" as="geometry" />
        </mxCell>
        <mxCell id="2M90Gd991hqFJUde-eGh-143" value="zahteva" style="shape=rhombus;perimeter=rhombusPerimeter;whiteSpace=wrap;html=1;align=center;" parent="1" vertex="1">
          <mxGeometry x="-65" y="991" width="80" height="54" as="geometry" />
        </mxCell>
        <mxCell id="2M90Gd991hqFJUde-eGh-147" value="&lt;font style=&quot;font-size: 12px;&quot;&gt;zahteva&lt;/font&gt;" style="text;html=1;align=center;verticalAlign=middle;resizable=0;points=[];autosize=1;strokeColor=none;fillColor=none;" parent="1" vertex="1">
          <mxGeometry x="65" y="990" width="70" height="30" as="geometry" />
        </mxCell>
        <mxCell id="2M90Gd991hqFJUde-eGh-148" value="&lt;font style=&quot;font-size: 12px;&quot;&gt;potreban&lt;/font&gt;" style="text;html=1;align=center;verticalAlign=middle;resizable=0;points=[];autosize=1;strokeColor=none;fillColor=none;fontSize=10;" parent="1" vertex="1">
          <mxGeometry x="-35" y="1087" width="70" height="30" as="geometry" />
        </mxCell>
        <mxCell id="2M90Gd991hqFJUde-eGh-150" value="(0,N)" style="text;html=1;align=center;verticalAlign=middle;resizable=0;points=[];autosize=1;strokeColor=none;fillColor=none;" parent="1" vertex="1">
          <mxGeometry x="85" y="1040" width="50" height="30" as="geometry" />
        </mxCell>
        <mxCell id="2M90Gd991hqFJUde-eGh-151" value="(0,N)" style="text;html=1;align=center;verticalAlign=middle;resizable=0;points=[];autosize=1;strokeColor=none;fillColor=none;" parent="1" vertex="1">
          <mxGeometry x="45" y="1092" width="50" height="30" as="geometry" />
        </mxCell>
        <mxCell id="2M90Gd991hqFJUde-eGh-193" style="edgeStyle=orthogonalEdgeStyle;rounded=0;orthogonalLoop=1;jettySize=auto;html=1;exitX=0.25;exitY=1;exitDx=0;exitDy=0;entryX=0.5;entryY=0;entryDx=0;entryDy=0;" parent="1" source="2M90Gd991hqFJUde-eGh-153" target="2M90Gd991hqFJUde-eGh-190" edge="1">
          <mxGeometry relative="1" as="geometry" />
        </mxCell>
        <mxCell id="2M90Gd991hqFJUde-eGh-194" style="edgeStyle=orthogonalEdgeStyle;rounded=0;orthogonalLoop=1;jettySize=auto;html=1;exitX=0.5;exitY=1;exitDx=0;exitDy=0;entryX=0;entryY=0;entryDx=0;entryDy=0;" parent="1" source="2M90Gd991hqFJUde-eGh-153" target="2M90Gd991hqFJUde-eGh-191" edge="1">
          <mxGeometry relative="1" as="geometry" />
        </mxCell>
        <mxCell id="2M90Gd991hqFJUde-eGh-195" style="edgeStyle=orthogonalEdgeStyle;rounded=0;orthogonalLoop=1;jettySize=auto;html=1;exitX=1;exitY=0.5;exitDx=0;exitDy=0;entryX=0.082;entryY=0.721;entryDx=0;entryDy=0;entryPerimeter=0;" parent="1" source="2M90Gd991hqFJUde-eGh-153" target="2M90Gd991hqFJUde-eGh-192" edge="1">
          <mxGeometry relative="1" as="geometry" />
        </mxCell>
        <mxCell id="2M90Gd991hqFJUde-eGh-153" value="Kategorija" style="whiteSpace=wrap;html=1;align=center;" parent="1" vertex="1">
          <mxGeometry x="450" y="1072" width="100" height="40" as="geometry" />
        </mxCell>
        <mxCell id="2M90Gd991hqFJUde-eGh-157" style="edgeStyle=orthogonalEdgeStyle;rounded=0;orthogonalLoop=1;jettySize=auto;html=1;exitX=1;exitY=0.5;exitDx=0;exitDy=0;entryX=0;entryY=0.5;entryDx=0;entryDy=0;" parent="1" source="T_6iaBKeXN9d0D9zgCDS-24" target="2M90Gd991hqFJUde-eGh-153" edge="1">
          <mxGeometry relative="1" as="geometry">
            <mxPoint x="375" y="1091.9999999999995" as="sourcePoint" />
          </mxGeometry>
        </mxCell>
        <mxCell id="2M90Gd991hqFJUde-eGh-161" style="edgeStyle=orthogonalEdgeStyle;rounded=0;orthogonalLoop=1;jettySize=auto;html=1;entryX=1;entryY=0.5;entryDx=0;entryDy=0;exitX=0;exitY=0.5;exitDx=0;exitDy=0;" parent="1" source="T_6iaBKeXN9d0D9zgCDS-24" target="2M90Gd991hqFJUde-eGh-142" edge="1">
          <mxGeometry relative="1" as="geometry">
            <mxPoint x="275" y="1092" as="sourcePoint" />
          </mxGeometry>
        </mxCell>
        <mxCell id="2M90Gd991hqFJUde-eGh-162" value="(0,N)" style="text;html=1;align=center;verticalAlign=middle;resizable=0;points=[];autosize=1;strokeColor=none;fillColor=none;" parent="1" vertex="1">
          <mxGeometry x="400" y="1089.5" width="50" height="30" as="geometry" />
        </mxCell>
        <mxCell id="2M90Gd991hqFJUde-eGh-168" style="edgeStyle=orthogonalEdgeStyle;rounded=0;orthogonalLoop=1;jettySize=auto;html=1;exitX=1;exitY=0.5;exitDx=0;exitDy=0;entryX=0.002;entryY=0.882;entryDx=0;entryDy=0;entryPerimeter=0;" parent="1" source="2M90Gd991hqFJUde-eGh-167" target="yfBjnqdeHr14PMCk5z5g-1" edge="1">
          <mxGeometry relative="1" as="geometry" />
        </mxCell>
        <mxCell id="2M90Gd991hqFJUde-eGh-171" style="edgeStyle=orthogonalEdgeStyle;rounded=0;orthogonalLoop=1;jettySize=auto;html=1;exitX=0;exitY=0.5;exitDx=0;exitDy=0;entryX=1;entryY=0.5;entryDx=0;entryDy=0;" parent="1" source="2M90Gd991hqFJUde-eGh-167" target="2M90Gd991hqFJUde-eGh-48" edge="1">
          <mxGeometry relative="1" as="geometry" />
        </mxCell>
        <mxCell id="2M90Gd991hqFJUde-eGh-167" value="Igra" style="shape=associativeEntity;whiteSpace=wrap;html=1;align=center;" parent="1" vertex="1">
          <mxGeometry x="110" y="605" width="140" height="60" as="geometry" />
        </mxCell>
        <mxCell id="2M90Gd991hqFJUde-eGh-175" style="edgeStyle=orthogonalEdgeStyle;rounded=0;orthogonalLoop=1;jettySize=auto;html=1;exitX=0.5;exitY=0;exitDx=0;exitDy=0;entryX=0.5;entryY=1;entryDx=0;entryDy=0;" parent="1" source="2M90Gd991hqFJUde-eGh-206" target="2M90Gd991hqFJUde-eGh-167" edge="1">
          <mxGeometry relative="1" as="geometry">
            <mxPoint x="180" y="727" as="sourcePoint" />
          </mxGeometry>
        </mxCell>
        <mxCell id="2M90Gd991hqFJUde-eGh-188" value="(0,N)" style="text;html=1;align=center;verticalAlign=middle;resizable=0;points=[];autosize=1;strokeColor=none;fillColor=none;" parent="1" vertex="1">
          <mxGeometry x="180" y="665" width="50" height="30" as="geometry" />
        </mxCell>
        <mxCell id="2M90Gd991hqFJUde-eGh-189" value="(0,N)" style="text;html=1;align=center;verticalAlign=middle;resizable=0;points=[];autosize=1;strokeColor=none;fillColor=none;" parent="1" vertex="1">
          <mxGeometry x="50" y="889.5" width="50" height="30" as="geometry" />
        </mxCell>
        <mxCell id="2M90Gd991hqFJUde-eGh-190" value="ID" style="ellipse;whiteSpace=wrap;html=1;align=center;fontStyle=4;" parent="1" vertex="1">
          <mxGeometry x="410" y="1150" width="80" height="30" as="geometry" />
        </mxCell>
        <mxCell id="2M90Gd991hqFJUde-eGh-191" value="Naziv" style="ellipse;whiteSpace=wrap;html=1;align=center;" parent="1" vertex="1">
          <mxGeometry x="530" y="1145" width="80" height="30" as="geometry" />
        </mxCell>
        <mxCell id="2M90Gd991hqFJUde-eGh-192" value="Opis" style="ellipse;whiteSpace=wrap;html=1;align=center;" parent="1" vertex="1">
          <mxGeometry x="570" y="1060" width="90" height="37" as="geometry" />
        </mxCell>
        <mxCell id="2M90Gd991hqFJUde-eGh-202" style="edgeStyle=orthogonalEdgeStyle;rounded=0;orthogonalLoop=1;jettySize=auto;html=1;exitX=1;exitY=0;exitDx=0;exitDy=0;entryX=0.25;entryY=1;entryDx=0;entryDy=0;" parent="1" source="2M90Gd991hqFJUde-eGh-196" target="2M90Gd991hqFJUde-eGh-142" edge="1">
          <mxGeometry relative="1" as="geometry" />
        </mxCell>
        <mxCell id="2M90Gd991hqFJUde-eGh-196" value="Opis" style="ellipse;whiteSpace=wrap;html=1;align=center;" parent="1" vertex="1">
          <mxGeometry x="65" y="1240" width="60" height="35" as="geometry" />
        </mxCell>
        <mxCell id="2M90Gd991hqFJUde-eGh-203" style="edgeStyle=orthogonalEdgeStyle;rounded=0;orthogonalLoop=1;jettySize=auto;html=1;exitX=1;exitY=0;exitDx=0;exitDy=0;" parent="1" source="2M90Gd991hqFJUde-eGh-197" target="2M90Gd991hqFJUde-eGh-142" edge="1">
          <mxGeometry relative="1" as="geometry" />
        </mxCell>
        <mxCell id="2M90Gd991hqFJUde-eGh-197" value="Naziv" style="ellipse;whiteSpace=wrap;html=1;align=center;" parent="1" vertex="1">
          <mxGeometry x="120" y="1205.5" width="55" height="30" as="geometry" />
        </mxCell>
        <mxCell id="2M90Gd991hqFJUde-eGh-204" style="edgeStyle=orthogonalEdgeStyle;rounded=0;orthogonalLoop=1;jettySize=auto;html=1;exitX=0;exitY=0;exitDx=0;exitDy=0;entryX=0.75;entryY=1;entryDx=0;entryDy=0;" parent="1" source="2M90Gd991hqFJUde-eGh-198" target="2M90Gd991hqFJUde-eGh-142" edge="1">
          <mxGeometry relative="1" as="geometry" />
        </mxCell>
        <mxCell id="2M90Gd991hqFJUde-eGh-198" value="ID" style="ellipse;whiteSpace=wrap;html=1;align=center;fontStyle=4;" parent="1" vertex="1">
          <mxGeometry x="170" y="1257.5" width="70" height="22.5" as="geometry" />
        </mxCell>
        <mxCell id="T_6iaBKeXN9d0D9zgCDS-23" style="edgeStyle=orthogonalEdgeStyle;rounded=0;orthogonalLoop=1;jettySize=auto;html=1;exitX=0;exitY=0.5;exitDx=0;exitDy=0;entryX=0.5;entryY=0;entryDx=0;entryDy=0;" parent="1" source="2M90Gd991hqFJUde-eGh-206" target="T_6iaBKeXN9d0D9zgCDS-22" edge="1">
          <mxGeometry relative="1" as="geometry" />
        </mxCell>
        <mxCell id="2M90Gd991hqFJUde-eGh-206" value="posjeduje" style="shape=rhombus;perimeter=rhombusPerimeter;whiteSpace=wrap;html=1;align=center;" parent="1" vertex="1">
          <mxGeometry x="120" y="821" width="120" height="60" as="geometry" />
        </mxCell>
        <mxCell id="2M90Gd991hqFJUde-eGh-209" style="edgeStyle=orthogonalEdgeStyle;rounded=0;orthogonalLoop=1;jettySize=auto;html=1;exitX=1;exitY=0.5;exitDx=0;exitDy=0;entryX=0.127;entryY=1.004;entryDx=0;entryDy=0;entryPerimeter=0;" parent="1" source="2M90Gd991hqFJUde-eGh-208" target="2M90Gd991hqFJUde-eGh-142" edge="1">
          <mxGeometry relative="1" as="geometry" />
        </mxCell>
        <mxCell id="2M90Gd991hqFJUde-eGh-211" style="edgeStyle=orthogonalEdgeStyle;rounded=0;orthogonalLoop=1;jettySize=auto;html=1;exitX=0;exitY=0.5;exitDx=0;exitDy=0;entryX=1;entryY=0.5;entryDx=0;entryDy=0;shape=flexArrow;" parent="1" source="2M90Gd991hqFJUde-eGh-208" target="2M90Gd991hqFJUde-eGh-210" edge="1">
          <mxGeometry relative="1" as="geometry" />
        </mxCell>
        <mxCell id="2M90Gd991hqFJUde-eGh-208" value="ima" style="shape=rhombus;double=1;perimeter=rhombusPerimeter;whiteSpace=wrap;html=1;align=center;" parent="1" vertex="1">
          <mxGeometry x="-35" y="1163" width="120" height="60" as="geometry" />
        </mxCell>
        <mxCell id="2M90Gd991hqFJUde-eGh-218" style="edgeStyle=orthogonalEdgeStyle;rounded=0;orthogonalLoop=1;jettySize=auto;html=1;exitX=0.75;exitY=1;exitDx=0;exitDy=0;entryX=0.5;entryY=0;entryDx=0;entryDy=0;" parent="1" source="2M90Gd991hqFJUde-eGh-210" target="2M90Gd991hqFJUde-eGh-217" edge="1">
          <mxGeometry relative="1" as="geometry" />
        </mxCell>
        <mxCell id="2M90Gd991hqFJUde-eGh-219" style="edgeStyle=orthogonalEdgeStyle;rounded=0;orthogonalLoop=1;jettySize=auto;html=1;exitX=0.5;exitY=1;exitDx=0;exitDy=0;entryX=0.5;entryY=0;entryDx=0;entryDy=0;" parent="1" source="2M90Gd991hqFJUde-eGh-210" target="2M90Gd991hqFJUde-eGh-213" edge="1">
          <mxGeometry relative="1" as="geometry" />
        </mxCell>
        <mxCell id="2M90Gd991hqFJUde-eGh-220" style="edgeStyle=orthogonalEdgeStyle;rounded=0;orthogonalLoop=1;jettySize=auto;html=1;exitX=0.25;exitY=1;exitDx=0;exitDy=0;entryX=0.696;entryY=0.078;entryDx=0;entryDy=0;entryPerimeter=0;" parent="1" source="2M90Gd991hqFJUde-eGh-210" target="2M90Gd991hqFJUde-eGh-214" edge="1">
          <mxGeometry relative="1" as="geometry" />
        </mxCell>
        <mxCell id="2M90Gd991hqFJUde-eGh-221" style="edgeStyle=orthogonalEdgeStyle;rounded=0;orthogonalLoop=1;jettySize=auto;html=1;exitX=0;exitY=0.5;exitDx=0;exitDy=0;entryX=1;entryY=0;entryDx=0;entryDy=0;" parent="1" source="2M90Gd991hqFJUde-eGh-210" target="2M90Gd991hqFJUde-eGh-215" edge="1">
          <mxGeometry relative="1" as="geometry" />
        </mxCell>
        <mxCell id="2M90Gd991hqFJUde-eGh-222" style="edgeStyle=orthogonalEdgeStyle;rounded=0;orthogonalLoop=1;jettySize=auto;html=1;exitX=0;exitY=0;exitDx=0;exitDy=0;" parent="1" source="2M90Gd991hqFJUde-eGh-210" target="2M90Gd991hqFJUde-eGh-216" edge="1">
          <mxGeometry relative="1" as="geometry" />
        </mxCell>
        <mxCell id="2M90Gd991hqFJUde-eGh-210" value="stats" style="shape=ext;margin=3;double=1;whiteSpace=wrap;html=1;align=center;" parent="1" vertex="1">
          <mxGeometry x="-220" y="1173" width="100" height="40" as="geometry" />
        </mxCell>
        <mxCell id="2M90Gd991hqFJUde-eGh-212" value="(0,N)" style="text;html=1;align=center;verticalAlign=middle;resizable=0;points=[];autosize=1;strokeColor=none;fillColor=none;" parent="1" vertex="1">
          <mxGeometry x="65" y="1127" width="50" height="30" as="geometry" />
        </mxCell>
        <mxCell id="2M90Gd991hqFJUde-eGh-213" value="AD" style="ellipse;whiteSpace=wrap;html=1;align=center;" parent="1" vertex="1">
          <mxGeometry x="-210" y="1260" width="60" height="37" as="geometry" />
        </mxCell>
        <mxCell id="2M90Gd991hqFJUde-eGh-214" value="AP" style="ellipse;whiteSpace=wrap;html=1;align=center;" parent="1" vertex="1">
          <mxGeometry x="-280" y="1250" width="60" height="37" as="geometry" />
        </mxCell>
        <mxCell id="2M90Gd991hqFJUde-eGh-215" value="AS" style="ellipse;whiteSpace=wrap;html=1;align=center;" parent="1" vertex="1">
          <mxGeometry x="-330" y="1213" width="60" height="37" as="geometry" />
        </mxCell>
        <mxCell id="2M90Gd991hqFJUde-eGh-216" value="Health" style="ellipse;whiteSpace=wrap;html=1;align=center;" parent="1" vertex="1">
          <mxGeometry x="-340" y="1157" width="60" height="37" as="geometry" />
        </mxCell>
        <mxCell id="2M90Gd991hqFJUde-eGh-217" value="MR" style="ellipse;whiteSpace=wrap;html=1;align=center;" parent="1" vertex="1">
          <mxGeometry x="-140" y="1258" width="60" height="37" as="geometry" />
        </mxCell>
        <mxCell id="2M90Gd991hqFJUde-eGh-244" style="edgeStyle=orthogonalEdgeStyle;rounded=0;orthogonalLoop=1;jettySize=auto;html=1;exitX=0;exitY=0.5;exitDx=0;exitDy=0;entryX=0.926;entryY=1.051;entryDx=0;entryDy=0;entryPerimeter=0;strokeWidth=1;" parent="1" source="2M90Gd991hqFJUde-eGh-234" target="2M90Gd991hqFJUde-eGh-142" edge="1">
          <mxGeometry relative="1" as="geometry" />
        </mxCell>
        <mxCell id="RYUvUEmuBBPlDel3eegI-30" style="edgeStyle=orthogonalEdgeStyle;rounded=0;orthogonalLoop=1;jettySize=auto;html=1;entryX=0;entryY=0.5;entryDx=0;entryDy=0;strokeWidth=2;" edge="1" parent="1" source="2M90Gd991hqFJUde-eGh-234" target="2M90Gd991hqFJUde-eGh-239">
          <mxGeometry relative="1" as="geometry" />
        </mxCell>
        <mxCell id="2M90Gd991hqFJUde-eGh-234" value="kosta" style="shape=rhombus;double=1;perimeter=rhombusPerimeter;whiteSpace=wrap;html=1;align=center;" parent="1" vertex="1">
          <mxGeometry x="250" y="1157" width="120" height="60" as="geometry" />
        </mxCell>
        <mxCell id="2M90Gd991hqFJUde-eGh-236" style="edgeStyle=orthogonalEdgeStyle;rounded=0;orthogonalLoop=1;jettySize=auto;html=1;exitX=0.5;exitY=0;exitDx=0;exitDy=0;" parent="1" source="2M90Gd991hqFJUde-eGh-239" target="2M90Gd991hqFJUde-eGh-240" edge="1">
          <mxGeometry relative="1" as="geometry" />
        </mxCell>
        <mxCell id="2M90Gd991hqFJUde-eGh-247" style="edgeStyle=orthogonalEdgeStyle;rounded=0;orthogonalLoop=1;jettySize=auto;html=1;exitX=0.25;exitY=0;exitDx=0;exitDy=0;entryX=0.5;entryY=1;entryDx=0;entryDy=0;" parent="1" source="2M90Gd991hqFJUde-eGh-239" target="2M90Gd991hqFJUde-eGh-246" edge="1">
          <mxGeometry relative="1" as="geometry" />
        </mxCell>
        <mxCell id="2M90Gd991hqFJUde-eGh-239" value="in-game cenovnik" style="shape=ext;margin=3;double=1;whiteSpace=wrap;html=1;align=center;" parent="1" vertex="1">
          <mxGeometry x="350" y="1330" width="100" height="40" as="geometry" />
        </mxCell>
        <mxCell id="2M90Gd991hqFJUde-eGh-240" value="Cena" style="ellipse;whiteSpace=wrap;html=1;align=center;" parent="1" vertex="1">
          <mxGeometry x="460" y="1240" width="60" height="25" as="geometry" />
        </mxCell>
        <mxCell id="2M90Gd991hqFJUde-eGh-246" value="ID" style="ellipse;whiteSpace=wrap;html=1;align=center;fontStyle=4;" parent="1" vertex="1">
          <mxGeometry x="350" y="1240" width="60" height="35" as="geometry" />
        </mxCell>
        <mxCell id="2M90Gd991hqFJUde-eGh-249" value="Inventar" style="whiteSpace=wrap;html=1;align=center;" parent="1" vertex="1">
          <mxGeometry x="-160" y="881" width="100" height="40" as="geometry" />
        </mxCell>
        <mxCell id="2M90Gd991hqFJUde-eGh-253" style="edgeStyle=orthogonalEdgeStyle;rounded=0;orthogonalLoop=1;jettySize=auto;html=1;exitX=1;exitY=0.5;exitDx=0;exitDy=0;" parent="1" source="T_6iaBKeXN9d0D9zgCDS-22" edge="1">
          <mxGeometry relative="1" as="geometry">
            <mxPoint x="150" y="1069.9999999999995" as="targetPoint" />
            <mxPoint x="100" y="941.4999999999995" as="sourcePoint" />
          </mxGeometry>
        </mxCell>
        <mxCell id="2M90Gd991hqFJUde-eGh-257" style="edgeStyle=orthogonalEdgeStyle;rounded=0;orthogonalLoop=1;jettySize=auto;html=1;exitX=0;exitY=0.5;exitDx=0;exitDy=0;entryX=0.75;entryY=1;entryDx=0;entryDy=0;" parent="1" source="T_6iaBKeXN9d0D9zgCDS-22" target="2M90Gd991hqFJUde-eGh-249" edge="1">
          <mxGeometry relative="1" as="geometry">
            <mxPoint x="15" y="941.4999999999995" as="sourcePoint" />
          </mxGeometry>
        </mxCell>
        <mxCell id="2M90Gd991hqFJUde-eGh-255" value="(0,N)" style="text;html=1;align=center;verticalAlign=middle;resizable=0;points=[];autosize=1;labelBackgroundColor=default;" parent="1" vertex="1">
          <mxGeometry x="130" y="1030" width="50" height="30" as="geometry" />
        </mxCell>
        <mxCell id="2M90Gd991hqFJUde-eGh-256" value="(0,N)" style="text;html=1;align=center;verticalAlign=middle;resizable=0;points=[];autosize=1;strokeColor=none;fillColor=none;" parent="1" vertex="1">
          <mxGeometry x="-100" y="936.5" width="50" height="30" as="geometry" />
        </mxCell>
        <mxCell id="2M90Gd991hqFJUde-eGh-259" style="edgeStyle=orthogonalEdgeStyle;rounded=0;orthogonalLoop=1;jettySize=auto;html=1;entryX=0.5;entryY=0;entryDx=0;entryDy=0;exitX=0.5;exitY=1;exitDx=0;exitDy=0;" parent="1" source="T_6iaBKeXN9d0D9zgCDS-25" target="2M90Gd991hqFJUde-eGh-249" edge="1">
          <mxGeometry relative="1" as="geometry">
            <mxPoint x="-110" y="830" as="sourcePoint" />
          </mxGeometry>
        </mxCell>
        <mxCell id="2M90Gd991hqFJUde-eGh-261" value="(0,N)" style="text;html=1;align=center;verticalAlign=middle;resizable=0;points=[];autosize=1;strokeColor=none;fillColor=none;" parent="1" vertex="1">
          <mxGeometry x="-115" y="855.5" width="50" height="30" as="geometry" />
        </mxCell>
        <mxCell id="2M90Gd991hqFJUde-eGh-264" value="(0,N)" style="text;html=1;align=center;verticalAlign=middle;resizable=0;points=[];autosize=1;strokeColor=none;fillColor=none;" parent="1" vertex="1">
          <mxGeometry x="-45" y="648" width="50" height="30" as="geometry" />
        </mxCell>
        <mxCell id="T_6iaBKeXN9d0D9zgCDS-4" style="edgeStyle=orthogonalEdgeStyle;rounded=0;orthogonalLoop=1;jettySize=auto;html=1;exitX=0.25;exitY=0;exitDx=0;exitDy=0;entryX=0.75;entryY=0.935;entryDx=0;entryDy=0;entryPerimeter=0;" parent="1" source="T_6iaBKeXN9d0D9zgCDS-2" target="T_6iaBKeXN9d0D9zgCDS-3" edge="1">
          <mxGeometry relative="1" as="geometry" />
        </mxCell>
        <mxCell id="T_6iaBKeXN9d0D9zgCDS-6" style="edgeStyle=orthogonalEdgeStyle;rounded=0;orthogonalLoop=1;jettySize=auto;html=1;exitX=0.75;exitY=0;exitDx=0;exitDy=0;entryX=0.5;entryY=1;entryDx=0;entryDy=0;" parent="1" source="T_6iaBKeXN9d0D9zgCDS-2" target="T_6iaBKeXN9d0D9zgCDS-5" edge="1">
          <mxGeometry relative="1" as="geometry" />
        </mxCell>
        <mxCell id="T_6iaBKeXN9d0D9zgCDS-2" value="Patch" style="whiteSpace=wrap;html=1;align=center;" parent="1" vertex="1">
          <mxGeometry x="-520" y="889.5" width="100" height="40" as="geometry" />
        </mxCell>
        <mxCell id="T_6iaBKeXN9d0D9zgCDS-3" value="Naziv" style="ellipse;whiteSpace=wrap;html=1;align=center;fontStyle=4;" parent="1" vertex="1">
          <mxGeometry x="-580" y="841.5" width="80" height="31" as="geometry" />
        </mxCell>
        <mxCell id="T_6iaBKeXN9d0D9zgCDS-5" value="datum pocetka" style="ellipse;whiteSpace=wrap;html=1;align=center;" parent="1" vertex="1">
          <mxGeometry x="-480" y="838" width="60" height="38" as="geometry" />
        </mxCell>
        <mxCell id="T_6iaBKeXN9d0D9zgCDS-8" style="edgeStyle=orthogonalEdgeStyle;rounded=0;orthogonalLoop=1;jettySize=auto;html=1;exitX=0;exitY=0.5;exitDx=0;exitDy=0;entryX=0.75;entryY=1;entryDx=0;entryDy=0;" parent="1" source="T_6iaBKeXN9d0D9zgCDS-7" target="T_6iaBKeXN9d0D9zgCDS-2" edge="1">
          <mxGeometry relative="1" as="geometry" />
        </mxCell>
        <mxCell id="T_6iaBKeXN9d0D9zgCDS-9" style="edgeStyle=orthogonalEdgeStyle;rounded=0;orthogonalLoop=1;jettySize=auto;html=1;exitX=1;exitY=0.5;exitDx=0;exitDy=0;entryX=0.85;entryY=0;entryDx=0;entryDy=0;entryPerimeter=0;strokeWidth=2;" parent="1" source="T_6iaBKeXN9d0D9zgCDS-7" target="2M90Gd991hqFJUde-eGh-210" edge="1">
          <mxGeometry relative="1" as="geometry" />
        </mxCell>
        <mxCell id="T_6iaBKeXN9d0D9zgCDS-7" value="pripada stats" style="shape=rhombus;double=1;perimeter=rhombusPerimeter;whiteSpace=wrap;html=1;align=center;" parent="1" vertex="1">
          <mxGeometry x="-400" y="1047.5" width="120" height="60" as="geometry" />
        </mxCell>
        <mxCell id="T_6iaBKeXN9d0D9zgCDS-11" value="(0,N)" style="text;html=1;align=center;verticalAlign=middle;resizable=0;points=[];autosize=1;strokeColor=none;fillColor=none;" parent="1" vertex="1">
          <mxGeometry x="-450" y="929.5" width="50" height="30" as="geometry" />
        </mxCell>
        <mxCell id="T_6iaBKeXN9d0D9zgCDS-13" style="edgeStyle=orthogonalEdgeStyle;rounded=0;orthogonalLoop=1;jettySize=auto;html=1;exitX=1;exitY=0.5;exitDx=0;exitDy=0;entryX=0;entryY=0.75;entryDx=0;entryDy=0;strokeWidth=2;" parent="1" source="T_6iaBKeXN9d0D9zgCDS-12" target="2M90Gd991hqFJUde-eGh-249" edge="1">
          <mxGeometry relative="1" as="geometry" />
        </mxCell>
        <mxCell id="T_6iaBKeXN9d0D9zgCDS-14" style="edgeStyle=orthogonalEdgeStyle;rounded=0;orthogonalLoop=1;jettySize=auto;html=1;entryX=1;entryY=0.5;entryDx=0;entryDy=0;" parent="1" source="T_6iaBKeXN9d0D9zgCDS-12" target="T_6iaBKeXN9d0D9zgCDS-2" edge="1">
          <mxGeometry relative="1" as="geometry" />
        </mxCell>
        <mxCell id="T_6iaBKeXN9d0D9zgCDS-12" value="pripada inventar" style="shape=rhombus;double=1;perimeter=rhombusPerimeter;whiteSpace=wrap;html=1;align=center;" parent="1" vertex="1">
          <mxGeometry x="-350" y="881" width="120" height="60" as="geometry" />
        </mxCell>
        <mxCell id="T_6iaBKeXN9d0D9zgCDS-15" value="(0,N)" style="text;html=1;align=center;verticalAlign=middle;resizable=0;points=[];autosize=1;strokeColor=none;fillColor=none;" parent="1" vertex="1">
          <mxGeometry x="-415" y="878" width="50" height="30" as="geometry" />
        </mxCell>
        <mxCell id="T_6iaBKeXN9d0D9zgCDS-17" style="edgeStyle=orthogonalEdgeStyle;rounded=0;orthogonalLoop=1;jettySize=auto;html=1;exitX=0;exitY=0.5;exitDx=0;exitDy=0;entryX=0.25;entryY=1;entryDx=0;entryDy=0;strokeWidth=1;" parent="1" source="T_6iaBKeXN9d0D9zgCDS-16" target="T_6iaBKeXN9d0D9zgCDS-2" edge="1">
          <mxGeometry relative="1" as="geometry">
            <mxPoint x="-520" y="990" as="targetPoint" />
          </mxGeometry>
        </mxCell>
        <mxCell id="RYUvUEmuBBPlDel3eegI-29" style="edgeStyle=orthogonalEdgeStyle;rounded=0;orthogonalLoop=1;jettySize=auto;html=1;entryX=0.5;entryY=1;entryDx=0;entryDy=0;strokeWidth=2;" edge="1" parent="1" source="T_6iaBKeXN9d0D9zgCDS-16" target="2M90Gd991hqFJUde-eGh-239">
          <mxGeometry relative="1" as="geometry" />
        </mxCell>
        <mxCell id="T_6iaBKeXN9d0D9zgCDS-16" value="pripada in-game cenovnik" style="shape=rhombus;double=1;perimeter=rhombusPerimeter;whiteSpace=wrap;html=1;align=center;" parent="1" vertex="1">
          <mxGeometry x="-370" y="1360" width="120" height="60" as="geometry" />
        </mxCell>
        <mxCell id="T_6iaBKeXN9d0D9zgCDS-18" value="(0,N)" style="text;html=1;align=center;verticalAlign=middle;resizable=0;points=[];autosize=1;strokeColor=none;fillColor=none;" parent="1" vertex="1">
          <mxGeometry x="-550" y="930" width="50" height="30" as="geometry" />
        </mxCell>
        <mxCell id="T_6iaBKeXN9d0D9zgCDS-21" value="(0,N)" style="text;html=1;align=center;verticalAlign=middle;resizable=0;points=[];autosize=1;strokeColor=none;fillColor=none;" parent="1" vertex="1">
          <mxGeometry x="190" y="1089.5" width="50" height="30" as="geometry" />
        </mxCell>
        <mxCell id="T_6iaBKeXN9d0D9zgCDS-22" value="Sadrzi" style="shape=associativeEntity;whiteSpace=wrap;html=1;align=center;" parent="1" vertex="1">
          <mxGeometry x="-5" y="920" width="120" height="46.5" as="geometry" />
        </mxCell>
        <mxCell id="T_6iaBKeXN9d0D9zgCDS-24" value="pripada" style="shape=rhombus;perimeter=rhombusPerimeter;whiteSpace=wrap;html=1;align=center;" parent="1" vertex="1">
          <mxGeometry x="270" y="1062" width="120" height="60" as="geometry" />
        </mxCell>
        <mxCell id="T_6iaBKeXN9d0D9zgCDS-26" style="edgeStyle=orthogonalEdgeStyle;rounded=0;orthogonalLoop=1;jettySize=auto;html=1;exitX=0.5;exitY=0;exitDx=0;exitDy=0;entryX=0.5;entryY=1;entryDx=0;entryDy=0;" parent="1" source="T_6iaBKeXN9d0D9zgCDS-25" target="2M90Gd991hqFJUde-eGh-48" edge="1">
          <mxGeometry relative="1" as="geometry" />
        </mxCell>
        <mxCell id="T_6iaBKeXN9d0D9zgCDS-25" value="ima" style="shape=rhombus;perimeter=rhombusPerimeter;whiteSpace=wrap;html=1;align=center;" parent="1" vertex="1">
          <mxGeometry x="-170" y="770" width="120" height="60" as="geometry" />
        </mxCell>
        <mxCell id="T_6iaBKeXN9d0D9zgCDS-27" value="(1,1)" style="text;html=1;align=center;verticalAlign=middle;resizable=0;points=[];autosize=1;strokeColor=none;fillColor=none;" parent="1" vertex="1">
          <mxGeometry x="-115" y="720" width="50" height="30" as="geometry" />
        </mxCell>
        <mxCell id="RYUvUEmuBBPlDel3eegI-1" value="&lt;span style=&quot;border-bottom: 1px dotted&quot;&gt;datum pocetka&lt;/span&gt;" style="ellipse;whiteSpace=wrap;html=1;align=center;" parent="1" vertex="1">
          <mxGeometry x="1980" y="670" width="100" height="40" as="geometry" />
        </mxCell>
        <mxCell id="RYUvUEmuBBPlDel3eegI-3" value="&lt;span style=&quot;border-bottom: 1px dotted&quot;&gt;datum pocetka&lt;/span&gt;" style="ellipse;whiteSpace=wrap;html=1;align=center;" parent="1" vertex="1">
          <mxGeometry x="1747.5" y="1010" width="85" height="30" as="geometry" />
        </mxCell>
        <mxCell id="RYUvUEmuBBPlDel3eegI-4" value="&lt;span style=&quot;border-bottom: 1px dotted&quot;&gt;datum pocetka&lt;/span&gt;" style="ellipse;whiteSpace=wrap;html=1;align=center;" parent="1" vertex="1">
          <mxGeometry x="1460" y="985" width="100" height="40" as="geometry" />
        </mxCell>
        <mxCell id="cmRZkq6fY83uMXrm6ZkH-1" value="&lt;div&gt;Mapa&lt;/div&gt;" style="rounded=0;whiteSpace=wrap;html=1;" vertex="1" parent="1">
          <mxGeometry x="-930" y="-37.5" width="120" height="60" as="geometry" />
        </mxCell>
        <mxCell id="RYUvUEmuBBPlDel3eegI-17" value="ima emote" style="shape=rhombus;double=1;perimeter=rhombusPerimeter;whiteSpace=wrap;html=1;align=center;" vertex="1" parent="1">
          <mxGeometry x="1007.5" y="535" width="95" height="45" as="geometry" />
        </mxCell>
        <mxCell id="cmRZkq6fY83uMXrm6ZkH-2" style="edgeStyle=orthogonalEdgeStyle;rounded=0;orthogonalLoop=1;jettySize=auto;html=1;entryX=0.5;entryY=1;entryDx=0;entryDy=0;endArrow=none;endFill=0;" edge="1" parent="1" source="cmRZkq6fY83uMXrm6ZkH-9" target="cmRZkq6fY83uMXrm6ZkH-94">
          <mxGeometry relative="1" as="geometry" />
        </mxCell>
        <mxCell id="RYUvUEmuBBPlDel3eegI-24" value="skill" style="shape=ext;margin=3;double=1;whiteSpace=wrap;html=1;align=center;" vertex="1" parent="1">
          <mxGeometry x="1310" y="571.06" width="100" height="40" as="geometry" />
        </mxCell>
        <mxCell id="cmRZkq6fY83uMXrm6ZkH-3" style="edgeStyle=orthogonalEdgeStyle;rounded=0;orthogonalLoop=1;jettySize=auto;html=1;entryX=0.5;entryY=1;entryDx=0;entryDy=0;endArrow=none;endFill=0;" edge="1" parent="1" source="cmRZkq6fY83uMXrm6ZkH-9" target="cmRZkq6fY83uMXrm6ZkH-96">
          <mxGeometry relative="1" as="geometry" />
        </mxCell>
        <mxCell id="RYUvUEmuBBPlDel3eegI-27" style="edgeStyle=orthogonalEdgeStyle;rounded=0;orthogonalLoop=1;jettySize=auto;html=1;entryX=0.75;entryY=0;entryDx=0;entryDy=0;" edge="1" parent="1" source="RYUvUEmuBBPlDel3eegI-25" target="2M90Gd991hqFJUde-eGh-128">
          <mxGeometry relative="1" as="geometry" />
        </mxCell>
        <mxCell id="cmRZkq6fY83uMXrm6ZkH-4" style="edgeStyle=orthogonalEdgeStyle;rounded=0;orthogonalLoop=1;jettySize=auto;html=1;entryX=0.5;entryY=1;entryDx=0;entryDy=0;endArrow=none;endFill=0;" edge="1" parent="1" source="cmRZkq6fY83uMXrm6ZkH-9" target="cmRZkq6fY83uMXrm6ZkH-95">
          <mxGeometry relative="1" as="geometry" />
        </mxCell>
        <mxCell id="RYUvUEmuBBPlDel3eegI-28" value="" style="edgeStyle=orthogonalEdgeStyle;rounded=0;orthogonalLoop=1;jettySize=auto;html=1;" edge="1" parent="1" source="RYUvUEmuBBPlDel3eegI-25" target="RYUvUEmuBBPlDel3eegI-24">
          <mxGeometry relative="1" as="geometry" />
        </mxCell>
        <mxCell id="cmRZkq6fY83uMXrm6ZkH-5" style="edgeStyle=orthogonalEdgeStyle;rounded=0;orthogonalLoop=1;jettySize=auto;html=1;entryX=0;entryY=0.5;entryDx=0;entryDy=0;endArrow=none;endFill=0;" edge="1" parent="1" source="cmRZkq6fY83uMXrm6ZkH-9" target="cmRZkq6fY83uMXrm6ZkH-97">
          <mxGeometry relative="1" as="geometry" />
        </mxCell>
        <mxCell id="RYUvUEmuBBPlDel3eegI-25" value="ima skill" style="shape=rhombus;double=1;perimeter=rhombusPerimeter;whiteSpace=wrap;html=1;align=center;" vertex="1" parent="1">
          <mxGeometry x="1160" y="568" width="95" height="45" as="geometry" />
        </mxCell>
        <mxCell id="cmRZkq6fY83uMXrm6ZkH-6" style="edgeStyle=orthogonalEdgeStyle;rounded=0;orthogonalLoop=1;jettySize=auto;html=1;entryX=0.5;entryY=0;entryDx=0;entryDy=0;endArrow=none;endFill=0;" edge="1" parent="1" source="cmRZkq6fY83uMXrm6ZkH-9" target="cmRZkq6fY83uMXrm6ZkH-98">
          <mxGeometry relative="1" as="geometry" />
        </mxCell>
        <mxCell id="RYUvUEmuBBPlDel3eegI-31" value="placeno" style="shape=rhombus;perimeter=rhombusPerimeter;whiteSpace=wrap;html=1;align=center;" vertex="1" parent="1">
          <mxGeometry x="1735" y="477.5" width="125" height="55" as="geometry" />
        </mxCell>
        <mxCell id="cmRZkq6fY83uMXrm6ZkH-7" style="edgeStyle=orthogonalEdgeStyle;rounded=0;orthogonalLoop=1;jettySize=auto;html=1;entryX=0.5;entryY=0;entryDx=0;entryDy=0;endArrow=none;endFill=0;" edge="1" parent="1" source="cmRZkq6fY83uMXrm6ZkH-9" target="cmRZkq6fY83uMXrm6ZkH-103">
          <mxGeometry relative="1" as="geometry" />
        </mxCell>
        <mxCell id="RYUvUEmuBBPlDel3eegI-45" style="edgeStyle=none;shape=connector;rounded=0;orthogonalLoop=1;jettySize=auto;html=1;exitX=0.5;exitY=0;exitDx=0;exitDy=0;labelBackgroundColor=default;strokeColor=default;fontFamily=Helvetica;fontSize=11;fontColor=default;endArrow=none;endFill=0;entryX=1;entryY=0.75;entryDx=0;entryDy=0;" edge="1" parent="1" source="RYUvUEmuBBPlDel3eegI-35" target="2M90Gd991hqFJUde-eGh-128">
          <mxGeometry relative="1" as="geometry">
            <mxPoint x="1099.9999999999995" y="640" as="targetPoint" />
          </mxGeometry>
        </mxCell>
        <mxCell id="cmRZkq6fY83uMXrm6ZkH-8" style="edgeStyle=orthogonalEdgeStyle;rounded=0;orthogonalLoop=1;jettySize=auto;html=1;entryX=1;entryY=0;entryDx=0;entryDy=0;endArrow=none;endFill=0;" edge="1" parent="1" source="cmRZkq6fY83uMXrm6ZkH-9" target="cmRZkq6fY83uMXrm6ZkH-102">
          <mxGeometry relative="1" as="geometry" />
        </mxCell>
        <mxCell id="RYUvUEmuBBPlDel3eegI-35" value="Suport" style="ellipse;whiteSpace=wrap;html=1;align=center;" vertex="1" parent="1">
          <mxGeometry x="1090" y="717.5" width="60" height="15" as="geometry" />
        </mxCell>
        <mxCell id="cmRZkq6fY83uMXrm6ZkH-9" value="Mod igre" style="rounded=0;whiteSpace=wrap;html=1;" vertex="1" parent="1">
          <mxGeometry x="-540" y="-37.5" width="120" height="60" as="geometry" />
        </mxCell>
        <mxCell id="RYUvUEmuBBPlDel3eegI-41" style="rounded=0;orthogonalLoop=1;jettySize=auto;html=1;entryX=0;entryY=1;entryDx=0;entryDy=0;endArrow=none;endFill=0;" edge="1" parent="1" source="RYUvUEmuBBPlDel3eegI-36" target="2M90Gd991hqFJUde-eGh-128">
          <mxGeometry relative="1" as="geometry" />
        </mxCell>
        <mxCell id="cmRZkq6fY83uMXrm6ZkH-10" value="(0, N)" style="edgeStyle=orthogonalEdgeStyle;rounded=0;orthogonalLoop=1;jettySize=auto;html=1;" edge="1" parent="1">
          <mxGeometry x="0.475" y="-10" relative="1" as="geometry">
            <mxPoint x="-731" y="-7.5" as="sourcePoint" />
            <mxPoint x="-811" y="-7.5" as="targetPoint" />
            <mxPoint as="offset" />
          </mxGeometry>
        </mxCell>
        <mxCell id="RYUvUEmuBBPlDel3eegI-36" value="Top" style="ellipse;whiteSpace=wrap;html=1;align=center;" vertex="1" parent="1">
          <mxGeometry x="960" y="708" width="60" height="15" as="geometry" />
        </mxCell>
        <mxCell id="cmRZkq6fY83uMXrm6ZkH-11" value="" style="edgeStyle=orthogonalEdgeStyle;rounded=0;orthogonalLoop=1;jettySize=auto;html=1;" edge="1" parent="1" source="cmRZkq6fY83uMXrm6ZkH-12" target="cmRZkq6fY83uMXrm6ZkH-9">
          <mxGeometry relative="1" as="geometry" />
        </mxCell>
        <mxCell id="RYUvUEmuBBPlDel3eegI-44" style="edgeStyle=none;shape=connector;rounded=0;orthogonalLoop=1;jettySize=auto;html=1;exitX=0.667;exitY=-0.167;exitDx=0;exitDy=0;labelBackgroundColor=default;strokeColor=default;fontFamily=Helvetica;fontSize=11;fontColor=default;endArrow=none;endFill=0;entryX=1;entryY=0.75;entryDx=0;entryDy=0;exitPerimeter=0;" edge="1" parent="1" source="RYUvUEmuBBPlDel3eegI-37" target="2M90Gd991hqFJUde-eGh-128">
          <mxGeometry relative="1" as="geometry">
            <mxPoint x="1099.9999999999995" y="640" as="targetPoint" />
          </mxGeometry>
        </mxCell>
        <mxCell id="cmRZkq6fY83uMXrm6ZkH-12" value="&lt;div&gt;Se moze igrati na&lt;/div&gt;" style="rhombus;whiteSpace=wrap;html=1;" vertex="1" parent="1">
          <mxGeometry x="-730" y="-47.5" width="110" height="80" as="geometry" />
        </mxCell>
        <mxCell id="RYUvUEmuBBPlDel3eegI-37" value="Jungle" style="ellipse;whiteSpace=wrap;html=1;align=center;" vertex="1" parent="1">
          <mxGeometry x="1090" y="682.5" width="60" height="15" as="geometry" />
        </mxCell>
        <mxCell id="cmRZkq6fY83uMXrm6ZkH-13" value="(1, 1)" style="text;html=1;align=center;verticalAlign=middle;resizable=0;points=[];autosize=1;strokeColor=none;fillColor=none;" vertex="1" parent="1">
          <mxGeometry x="-585" y="-32.5" width="50" height="30" as="geometry" />
        </mxCell>
        <mxCell id="RYUvUEmuBBPlDel3eegI-43" style="edgeStyle=none;shape=connector;rounded=0;orthogonalLoop=1;jettySize=auto;html=1;entryX=0;entryY=1;entryDx=0;entryDy=0;labelBackgroundColor=default;strokeColor=default;fontFamily=Helvetica;fontSize=11;fontColor=default;endArrow=none;endFill=0;" edge="1" parent="1" source="RYUvUEmuBBPlDel3eegI-38" target="2M90Gd991hqFJUde-eGh-128">
          <mxGeometry relative="1" as="geometry" />
        </mxCell>
        <mxCell id="cmRZkq6fY83uMXrm6ZkH-14" style="edgeStyle=orthogonalEdgeStyle;rounded=0;orthogonalLoop=1;jettySize=auto;html=1;exitX=0.5;exitY=0;exitDx=0;exitDy=0;entryX=0.75;entryY=1;entryDx=0;entryDy=0;" edge="1" parent="1" source="cmRZkq6fY83uMXrm6ZkH-21" target="cmRZkq6fY83uMXrm6ZkH-1">
          <mxGeometry relative="1" as="geometry">
            <mxPoint x="-770" y="102.50000000000011" as="sourcePoint" />
          </mxGeometry>
        </mxCell>
        <mxCell id="RYUvUEmuBBPlDel3eegI-38" value="Bottom" style="ellipse;whiteSpace=wrap;html=1;align=center;" vertex="1" parent="1">
          <mxGeometry x="940" y="677.5" width="60" height="15" as="geometry" />
        </mxCell>
        <mxCell id="cmRZkq6fY83uMXrm6ZkH-15" style="edgeStyle=orthogonalEdgeStyle;rounded=0;orthogonalLoop=1;jettySize=auto;html=1;exitX=0.5;exitY=0;exitDx=0;exitDy=0;entryX=0.25;entryY=1;entryDx=0;entryDy=0;" edge="1" parent="1" source="cmRZkq6fY83uMXrm6ZkH-19" target="cmRZkq6fY83uMXrm6ZkH-1">
          <mxGeometry relative="1" as="geometry">
            <mxPoint x="-970" y="102.50000000000011" as="sourcePoint" />
          </mxGeometry>
        </mxCell>
        <mxCell id="RYUvUEmuBBPlDel3eegI-42" style="rounded=0;orthogonalLoop=1;jettySize=auto;html=1;entryX=1;entryY=0.75;entryDx=0;entryDy=0;endArrow=none;endFill=0;" edge="1" parent="1" source="RYUvUEmuBBPlDel3eegI-39" target="2M90Gd991hqFJUde-eGh-128">
          <mxGeometry relative="1" as="geometry" />
        </mxCell>
        <mxCell id="cmRZkq6fY83uMXrm6ZkH-16" value="(0, N)" style="text;html=1;align=center;verticalAlign=middle;resizable=0;points=[];autosize=1;strokeColor=none;fillColor=none;" vertex="1" parent="1">
          <mxGeometry x="-945" y="17.5" width="50" height="30" as="geometry" />
        </mxCell>
        <mxCell id="RYUvUEmuBBPlDel3eegI-39" value="Mid" style="ellipse;whiteSpace=wrap;html=1;align=center;" vertex="1" parent="1">
          <mxGeometry x="1060" y="702.5" width="60" height="15" as="geometry" />
        </mxCell>
        <mxCell id="cmRZkq6fY83uMXrm6ZkH-17" value="(0, N)" style="text;html=1;align=center;verticalAlign=middle;resizable=0;points=[];autosize=1;strokeColor=none;fillColor=none;" vertex="1" parent="1">
          <mxGeometry x="-840" y="17.5" width="50" height="30" as="geometry" />
        </mxCell>
        <mxCell id="RYUvUEmuBBPlDel3eegI-48" value="rarity" style="ellipse;whiteSpace=wrap;html=1;align=center;" vertex="1" parent="1">
          <mxGeometry x="1070" y="827.5" width="60" height="15" as="geometry" />
        </mxCell>
        <mxCell id="cmRZkq6fY83uMXrm6ZkH-18" value="" style="edgeStyle=orthogonalEdgeStyle;rounded=0;orthogonalLoop=1;jettySize=auto;html=1;" edge="1" parent="1" source="cmRZkq6fY83uMXrm6ZkH-19" target="cmRZkq6fY83uMXrm6ZkH-22">
          <mxGeometry relative="1" as="geometry" />
        </mxCell>
        <mxCell id="RYUvUEmuBBPlDel3eegI-51" style="edgeStyle=none;shape=connector;rounded=0;orthogonalLoop=1;jettySize=auto;html=1;entryX=0.812;entryY=-0.042;entryDx=0;entryDy=0;entryPerimeter=0;labelBackgroundColor=default;strokeColor=default;fontFamily=Helvetica;fontSize=11;fontColor=default;endArrow=none;endFill=0;" edge="1" parent="1" source="RYUvUEmuBBPlDel3eegI-50" target="yfBjnqdeHr14PMCk5z5g-37">
          <mxGeometry relative="1" as="geometry" />
        </mxCell>
        <mxCell id="cmRZkq6fY83uMXrm6ZkH-19" value="&lt;div&gt;Sadrzi staze&lt;br&gt;&lt;/div&gt;" style="shape=rhombus;double=1;perimeter=rhombusPerimeter;whiteSpace=wrap;html=1;align=center;" vertex="1" parent="1">
          <mxGeometry x="-1030" y="82.5" width="120" height="60" as="geometry" />
        </mxCell>
        <mxCell id="RYUvUEmuBBPlDel3eegI-50" value="boja" style="ellipse;whiteSpace=wrap;html=1;align=center;" vertex="1" parent="1">
          <mxGeometry x="1080" y="1015" width="60" height="15" as="geometry" />
        </mxCell>
        <mxCell id="cmRZkq6fY83uMXrm6ZkH-20" value="" style="edgeStyle=orthogonalEdgeStyle;rounded=0;orthogonalLoop=1;jettySize=auto;html=1;" edge="1" parent="1" source="cmRZkq6fY83uMXrm6ZkH-21" target="cmRZkq6fY83uMXrm6ZkH-23">
          <mxGeometry relative="1" as="geometry" />
        </mxCell>
        <mxCell id="RYUvUEmuBBPlDel3eegI-56" style="edgeStyle=orthogonalEdgeStyle;shape=connector;rounded=0;orthogonalLoop=1;jettySize=auto;html=1;entryX=1;entryY=0.5;entryDx=0;entryDy=0;labelBackgroundColor=default;strokeColor=default;fontFamily=Helvetica;fontSize=11;fontColor=default;endArrow=classic;endFill=1;" edge="1" parent="1" source="RYUvUEmuBBPlDel3eegI-55" target="RYUvUEmuBBPlDel3eegI-60">
          <mxGeometry relative="1" as="geometry">
            <mxPoint x="635" y="80" as="targetPoint" />
            <Array as="points">
              <mxPoint x="1170" y="325" />
            </Array>
          </mxGeometry>
        </mxCell>
        <mxCell id="RYUvUEmuBBPlDel3eegI-58" value="(0,N)" style="edgeLabel;html=1;align=center;verticalAlign=middle;resizable=0;points=[];fontSize=11;fontFamily=Helvetica;fontColor=default;" connectable="0" vertex="1" parent="RYUvUEmuBBPlDel3eegI-56">
          <mxGeometry x="0.8634" relative="1" as="geometry">
            <mxPoint x="15" as="offset" />
          </mxGeometry>
        </mxCell>
        <mxCell id="cmRZkq6fY83uMXrm6ZkH-21" value="Sadrzi dzunglu" style="shape=rhombus;double=1;perimeter=rhombusPerimeter;whiteSpace=wrap;html=1;align=center;" vertex="1" parent="1">
          <mxGeometry x="-733" y="82.5" width="120" height="60" as="geometry" />
        </mxCell>
        <mxCell id="RYUvUEmuBBPlDel3eegI-57" style="edgeStyle=orthogonalEdgeStyle;shape=connector;rounded=0;orthogonalLoop=1;jettySize=auto;html=1;entryX=0.25;entryY=0;entryDx=0;entryDy=0;labelBackgroundColor=default;strokeColor=default;fontFamily=Helvetica;fontSize=11;fontColor=default;endArrow=classic;endFill=1;" edge="1" parent="1" source="RYUvUEmuBBPlDel3eegI-55" target="2M90Gd991hqFJUde-eGh-23">
          <mxGeometry relative="1" as="geometry">
            <Array as="points">
              <mxPoint x="1360" y="375" />
              <mxPoint x="1360" y="450" />
              <mxPoint x="1615" y="450" />
            </Array>
          </mxGeometry>
        </mxCell>
        <mxCell id="RYUvUEmuBBPlDel3eegI-59" value="(0,1)" style="edgeLabel;html=1;align=center;verticalAlign=middle;resizable=0;points=[];fontSize=11;fontFamily=Helvetica;fontColor=default;" connectable="0" vertex="1" parent="RYUvUEmuBBPlDel3eegI-57">
          <mxGeometry x="0.892" y="2" relative="1" as="geometry">
            <mxPoint y="4" as="offset" />
          </mxGeometry>
        </mxCell>
        <mxCell id="cmRZkq6fY83uMXrm6ZkH-22" value="Staza" style="shape=ext;margin=3;double=1;whiteSpace=wrap;html=1;align=center;" vertex="1" parent="1">
          <mxGeometry x="-1020" y="222.5" width="100" height="40" as="geometry" />
        </mxCell>
        <mxCell id="RYUvUEmuBBPlDel3eegI-55" value="poklonio" style="shape=rhombus;perimeter=rhombusPerimeter;whiteSpace=wrap;html=1;align=center;fontFamily=Helvetica;fontSize=11;fontColor=default;" vertex="1" parent="1">
          <mxGeometry x="1110" y="345" width="120" height="60" as="geometry" />
        </mxCell>
        <mxCell id="cmRZkq6fY83uMXrm6ZkH-23" value="Deo dzungle" style="shape=ext;margin=3;double=1;whiteSpace=wrap;html=1;align=center;" vertex="1" parent="1">
          <mxGeometry x="-667" y="257.5" width="100" height="40" as="geometry" />
        </mxCell>
        <mxCell id="RYUvUEmuBBPlDel3eegI-60" value="prijatelj" style="shape=associativeEntity;whiteSpace=wrap;html=1;align=center;fontFamily=Helvetica;fontSize=11;fontColor=default;" vertex="1" parent="1">
          <mxGeometry x="880" y="300" width="90" height="50" as="geometry" />
        </mxCell>
        <mxCell id="cmRZkq6fY83uMXrm6ZkH-24" style="edgeStyle=orthogonalEdgeStyle;rounded=0;orthogonalLoop=1;jettySize=auto;html=1;entryX=0.25;entryY=0;entryDx=0;entryDy=0;" edge="1" parent="1" source="cmRZkq6fY83uMXrm6ZkH-25" target="cmRZkq6fY83uMXrm6ZkH-1">
          <mxGeometry relative="1" as="geometry" />
        </mxCell>
        <mxCell id="RYUvUEmuBBPlDel3eegI-63" value="mis" style="shape=ext;margin=3;double=1;whiteSpace=wrap;html=1;align=center;" vertex="1" parent="1">
          <mxGeometry x="475" y="-230" width="100" height="40" as="geometry" />
        </mxCell>
        <mxCell id="cmRZkq6fY83uMXrm6ZkH-25" value="Ima crvenu bazu" style="shape=rhombus;perimeter=rhombusPerimeter;whiteSpace=wrap;html=1;align=center;" vertex="1" parent="1">
          <mxGeometry x="-1015" y="-157.5" width="120" height="60" as="geometry" />
        </mxCell>
        <mxCell id="cmRZkq6fY83uMXrm6ZkH-26" style="edgeStyle=orthogonalEdgeStyle;rounded=0;orthogonalLoop=1;jettySize=auto;html=1;entryX=0.75;entryY=0;entryDx=0;entryDy=0;" edge="1" parent="1" source="cmRZkq6fY83uMXrm6ZkH-27" target="cmRZkq6fY83uMXrm6ZkH-1">
          <mxGeometry relative="1" as="geometry" />
        </mxCell>
        <mxCell id="cmRZkq6fY83uMXrm6ZkH-27" value="Ima plavu bazu" style="shape=rhombus;perimeter=rhombusPerimeter;whiteSpace=wrap;html=1;align=center;" vertex="1" parent="1">
          <mxGeometry x="-840" y="-157.5" width="120" height="60" as="geometry" />
        </mxCell>
        <mxCell id="cmRZkq6fY83uMXrm6ZkH-28" style="edgeStyle=orthogonalEdgeStyle;rounded=0;orthogonalLoop=1;jettySize=auto;html=1;exitX=0.5;exitY=0;exitDx=0;exitDy=0;" edge="1" parent="1" source="cmRZkq6fY83uMXrm6ZkH-25" target="cmRZkq6fY83uMXrm6ZkH-33">
          <mxGeometry relative="1" as="geometry">
            <Array as="points">
              <mxPoint x="-955" y="-182.5" />
              <mxPoint x="-890" y="-182.5" />
            </Array>
          </mxGeometry>
        </mxCell>
        <mxCell id="cmRZkq6fY83uMXrm6ZkH-29" style="edgeStyle=orthogonalEdgeStyle;rounded=0;orthogonalLoop=1;jettySize=auto;html=1;exitX=0.5;exitY=0;exitDx=0;exitDy=0;" edge="1" parent="1" source="cmRZkq6fY83uMXrm6ZkH-27" target="cmRZkq6fY83uMXrm6ZkH-33">
          <mxGeometry relative="1" as="geometry">
            <Array as="points">
              <mxPoint x="-780" y="-182.5" />
              <mxPoint x="-850" y="-182.5" />
            </Array>
          </mxGeometry>
        </mxCell>
        <mxCell id="cmRZkq6fY83uMXrm6ZkH-30" style="edgeStyle=orthogonalEdgeStyle;rounded=0;orthogonalLoop=1;jettySize=auto;html=1;entryX=0.5;entryY=1;entryDx=0;entryDy=0;exitX=1;exitY=0.5;exitDx=0;exitDy=0;endArrow=none;endFill=0;" edge="1" parent="1" source="cmRZkq6fY83uMXrm6ZkH-33" target="cmRZkq6fY83uMXrm6ZkH-99">
          <mxGeometry relative="1" as="geometry" />
        </mxCell>
        <mxCell id="cmRZkq6fY83uMXrm6ZkH-31" style="edgeStyle=orthogonalEdgeStyle;rounded=0;orthogonalLoop=1;jettySize=auto;html=1;entryX=0;entryY=0.5;entryDx=0;entryDy=0;endArrow=none;endFill=0;" edge="1" parent="1" source="cmRZkq6fY83uMXrm6ZkH-33" target="cmRZkq6fY83uMXrm6ZkH-100">
          <mxGeometry relative="1" as="geometry">
            <Array as="points">
              <mxPoint x="-720" y="-227.5" />
            </Array>
          </mxGeometry>
        </mxCell>
        <mxCell id="cmRZkq6fY83uMXrm6ZkH-32" style="edgeStyle=orthogonalEdgeStyle;rounded=0;orthogonalLoop=1;jettySize=auto;html=1;entryX=0;entryY=0.5;entryDx=0;entryDy=0;endArrow=none;endFill=0;" edge="1" parent="1" source="cmRZkq6fY83uMXrm6ZkH-33" target="cmRZkq6fY83uMXrm6ZkH-101">
          <mxGeometry relative="1" as="geometry" />
        </mxCell>
        <mxCell id="cmRZkq6fY83uMXrm6ZkH-33" value="Baza" style="whiteSpace=wrap;html=1;align=center;" vertex="1" parent="1">
          <mxGeometry x="-920" y="-247.5" width="100" height="40" as="geometry" />
        </mxCell>
        <mxCell id="cmRZkq6fY83uMXrm6ZkH-34" value="(1, N)" style="text;html=1;align=center;verticalAlign=middle;resizable=0;points=[];autosize=1;strokeColor=none;fillColor=none;" vertex="1" parent="1">
          <mxGeometry x="-935" y="-212.5" width="50" height="30" as="geometry" />
        </mxCell>
        <mxCell id="cmRZkq6fY83uMXrm6ZkH-35" value="(1, N)" style="text;html=1;align=center;verticalAlign=middle;resizable=0;points=[];autosize=1;strokeColor=none;fillColor=none;" vertex="1" parent="1">
          <mxGeometry x="-850" y="-212.5" width="50" height="30" as="geometry" />
        </mxCell>
        <mxCell id="cmRZkq6fY83uMXrm6ZkH-36" value="(0, 1)" style="text;html=1;align=center;verticalAlign=middle;resizable=0;points=[];autosize=1;strokeColor=none;fillColor=none;" vertex="1" parent="1">
          <mxGeometry x="-945" y="-62.5" width="50" height="30" as="geometry" />
        </mxCell>
        <mxCell id="cmRZkq6fY83uMXrm6ZkH-37" value="(0, 1)" style="text;html=1;align=center;verticalAlign=middle;resizable=0;points=[];autosize=1;strokeColor=none;fillColor=none;" vertex="1" parent="1">
          <mxGeometry x="-841" y="-62.5" width="50" height="30" as="geometry" />
        </mxCell>
        <mxCell id="cmRZkq6fY83uMXrm6ZkH-38" value="" style="edgeStyle=orthogonalEdgeStyle;rounded=0;orthogonalLoop=1;jettySize=auto;html=1;" edge="1" parent="1" source="cmRZkq6fY83uMXrm6ZkH-40" target="cmRZkq6fY83uMXrm6ZkH-41">
          <mxGeometry relative="1" as="geometry" />
        </mxCell>
        <mxCell id="cmRZkq6fY83uMXrm6ZkH-39" style="edgeStyle=orthogonalEdgeStyle;rounded=0;orthogonalLoop=1;jettySize=auto;html=1;entryX=0.5;entryY=0;entryDx=0;entryDy=0;" edge="1" parent="1" source="cmRZkq6fY83uMXrm6ZkH-40" target="cmRZkq6fY83uMXrm6ZkH-42">
          <mxGeometry relative="1" as="geometry" />
        </mxCell>
        <mxCell id="cmRZkq6fY83uMXrm6ZkH-40" value="IS-A" style="shape=rhombus;double=1;perimeter=rhombusPerimeter;whiteSpace=wrap;html=1;align=center;" vertex="1" parent="1">
          <mxGeometry x="-1240" y="-59.5" width="120" height="60" as="geometry" />
        </mxCell>
        <mxCell id="cmRZkq6fY83uMXrm6ZkH-41" value="Struktura" style="whiteSpace=wrap;html=1;align=center;" vertex="1" parent="1">
          <mxGeometry x="-1230" y="-149.5" width="100" height="40" as="geometry" />
        </mxCell>
        <mxCell id="cmRZkq6fY83uMXrm6ZkH-42" value="Kula" style="shape=ext;margin=3;double=1;whiteSpace=wrap;html=1;align=center;" vertex="1" parent="1">
          <mxGeometry x="-1230" y="96.5" width="100" height="40" as="geometry" />
        </mxCell>
        <mxCell id="cmRZkq6fY83uMXrm6ZkH-43" value="(0, 1)" style="text;html=1;align=center;verticalAlign=middle;resizable=0;points=[];autosize=1;strokeColor=none;fillColor=none;" vertex="1" parent="1">
          <mxGeometry x="-1230" y="-84.5" width="50" height="30" as="geometry" />
        </mxCell>
        <mxCell id="cmRZkq6fY83uMXrm6ZkH-44" style="edgeStyle=orthogonalEdgeStyle;rounded=0;orthogonalLoop=1;jettySize=auto;html=1;entryX=0.5;entryY=1;entryDx=0;entryDy=0;exitX=1;exitY=0.5;exitDx=0;exitDy=0;endArrow=none;endFill=0;" edge="1" parent="1" source="cmRZkq6fY83uMXrm6ZkH-46" target="cmRZkq6fY83uMXrm6ZkH-93">
          <mxGeometry relative="1" as="geometry" />
        </mxCell>
        <mxCell id="cmRZkq6fY83uMXrm6ZkH-45" style="edgeStyle=orthogonalEdgeStyle;rounded=0;orthogonalLoop=1;jettySize=auto;html=1;entryX=0.5;entryY=1;entryDx=0;entryDy=0;exitX=0;exitY=0.5;exitDx=0;exitDy=0;endArrow=none;endFill=0;" edge="1" parent="1" source="cmRZkq6fY83uMXrm6ZkH-46" target="cmRZkq6fY83uMXrm6ZkH-92">
          <mxGeometry relative="1" as="geometry" />
        </mxCell>
        <mxCell id="cmRZkq6fY83uMXrm6ZkH-46" value="Nexus" style="whiteSpace=wrap;html=1;align=center;" vertex="1" parent="1">
          <mxGeometry x="-920" y="-447.5" width="100" height="40" as="geometry" />
        </mxCell>
        <mxCell id="cmRZkq6fY83uMXrm6ZkH-47" style="edgeStyle=orthogonalEdgeStyle;rounded=0;orthogonalLoop=1;jettySize=auto;html=1;exitX=1;exitY=0.5;exitDx=0;exitDy=0;entryX=0;entryY=0.5;entryDx=0;entryDy=0;" edge="1" parent="1" source="cmRZkq6fY83uMXrm6ZkH-49" target="cmRZkq6fY83uMXrm6ZkH-33">
          <mxGeometry relative="1" as="geometry" />
        </mxCell>
        <mxCell id="cmRZkq6fY83uMXrm6ZkH-48" value="" style="edgeStyle=orthogonalEdgeStyle;rounded=0;orthogonalLoop=1;jettySize=auto;html=1;" edge="1" parent="1" source="cmRZkq6fY83uMXrm6ZkH-49">
          <mxGeometry relative="1" as="geometry">
            <mxPoint x="-1180" y="-147.5" as="targetPoint" />
          </mxGeometry>
        </mxCell>
        <mxCell id="cmRZkq6fY83uMXrm6ZkH-49" value="Sadrzi strukture" style="shape=rhombus;perimeter=rhombusPerimeter;whiteSpace=wrap;html=1;align=center;" vertex="1" parent="1">
          <mxGeometry x="-1240" y="-257.5" width="120" height="60" as="geometry" />
        </mxCell>
        <mxCell id="cmRZkq6fY83uMXrm6ZkH-50" value="" style="edgeStyle=orthogonalEdgeStyle;rounded=0;orthogonalLoop=1;jettySize=auto;html=1;entryX=0.5;entryY=0;entryDx=0;entryDy=0;" edge="1" parent="1" source="cmRZkq6fY83uMXrm6ZkH-52" target="cmRZkq6fY83uMXrm6ZkH-33">
          <mxGeometry relative="1" as="geometry" />
        </mxCell>
        <mxCell id="cmRZkq6fY83uMXrm6ZkH-51" value="" style="edgeStyle=orthogonalEdgeStyle;rounded=0;orthogonalLoop=1;jettySize=auto;html=1;" edge="1" parent="1" source="cmRZkq6fY83uMXrm6ZkH-52" target="cmRZkq6fY83uMXrm6ZkH-46">
          <mxGeometry relative="1" as="geometry" />
        </mxCell>
        <mxCell id="cmRZkq6fY83uMXrm6ZkH-52" value="Sadrzi nexus" style="shape=rhombus;perimeter=rhombusPerimeter;whiteSpace=wrap;html=1;align=center;" vertex="1" parent="1">
          <mxGeometry x="-930" y="-357.5" width="120" height="60" as="geometry" />
        </mxCell>
        <mxCell id="cmRZkq6fY83uMXrm6ZkH-53" value="(1, 1)" style="text;html=1;align=center;verticalAlign=middle;resizable=0;points=[];autosize=1;strokeColor=none;fillColor=none;" vertex="1" parent="1">
          <mxGeometry x="-920" y="-277.5" width="50" height="30" as="geometry" />
        </mxCell>
        <mxCell id="cmRZkq6fY83uMXrm6ZkH-54" value="(0, N)" style="text;html=1;align=center;verticalAlign=middle;resizable=0;points=[];autosize=1;strokeColor=none;fillColor=none;" vertex="1" parent="1">
          <mxGeometry x="-917" y="-407.5" width="50" height="30" as="geometry" />
        </mxCell>
        <mxCell id="cmRZkq6fY83uMXrm6ZkH-55" value="(1, N)" style="text;html=1;align=center;verticalAlign=middle;resizable=0;points=[];autosize=1;strokeColor=none;fillColor=none;" vertex="1" parent="1">
          <mxGeometry x="-970" y="-257.5" width="50" height="30" as="geometry" />
        </mxCell>
        <mxCell id="cmRZkq6fY83uMXrm6ZkH-56" value="(0, N)" style="text;html=1;align=center;verticalAlign=middle;resizable=0;points=[];autosize=1;strokeColor=none;fillColor=none;" vertex="1" parent="1">
          <mxGeometry x="-1230" y="-179.5" width="50" height="30" as="geometry" />
        </mxCell>
        <mxCell id="cmRZkq6fY83uMXrm6ZkH-57" value="" style="edgeStyle=orthogonalEdgeStyle;rounded=0;orthogonalLoop=1;jettySize=auto;html=1;" edge="1" parent="1" source="cmRZkq6fY83uMXrm6ZkH-59" target="cmRZkq6fY83uMXrm6ZkH-42">
          <mxGeometry relative="1" as="geometry">
            <Array as="points">
              <mxPoint x="-1250" y="116.5" />
            </Array>
          </mxGeometry>
        </mxCell>
        <mxCell id="cmRZkq6fY83uMXrm6ZkH-58" style="edgeStyle=orthogonalEdgeStyle;rounded=0;orthogonalLoop=1;jettySize=auto;html=1;entryX=0;entryY=0.5;entryDx=0;entryDy=0;" edge="1" parent="1" source="cmRZkq6fY83uMXrm6ZkH-59" target="cmRZkq6fY83uMXrm6ZkH-22">
          <mxGeometry relative="1" as="geometry" />
        </mxCell>
        <mxCell id="cmRZkq6fY83uMXrm6ZkH-59" value="Sadrzi kulu" style="shape=rhombus;perimeter=rhombusPerimeter;whiteSpace=wrap;html=1;align=center;" vertex="1" parent="1">
          <mxGeometry x="-1310" y="212.5" width="120" height="60" as="geometry" />
        </mxCell>
        <mxCell id="cmRZkq6fY83uMXrm6ZkH-60" value="(1, N)" style="text;html=1;align=center;verticalAlign=middle;resizable=0;points=[];autosize=1;strokeColor=none;fillColor=none;" vertex="1" parent="1">
          <mxGeometry x="-1072" y="210.5" width="50" height="30" as="geometry" />
        </mxCell>
        <mxCell id="cmRZkq6fY83uMXrm6ZkH-61" value="(0, N)" style="text;html=1;align=center;verticalAlign=middle;resizable=0;points=[];autosize=1;strokeColor=none;fillColor=none;" vertex="1" parent="1">
          <mxGeometry x="-1300" y="112.5" width="50" height="30" as="geometry" />
        </mxCell>
        <mxCell id="cmRZkq6fY83uMXrm6ZkH-62" value="Cudoviste" style="whiteSpace=wrap;html=1;align=center;" vertex="1" parent="1">
          <mxGeometry x="-667" y="437.5" width="100" height="40" as="geometry" />
        </mxCell>
        <mxCell id="cmRZkq6fY83uMXrm6ZkH-63" value="" style="edgeStyle=orthogonalEdgeStyle;rounded=0;orthogonalLoop=1;jettySize=auto;html=1;" edge="1" parent="1" source="cmRZkq6fY83uMXrm6ZkH-65" target="cmRZkq6fY83uMXrm6ZkH-23">
          <mxGeometry relative="1" as="geometry" />
        </mxCell>
        <mxCell id="cmRZkq6fY83uMXrm6ZkH-64" value="" style="edgeStyle=orthogonalEdgeStyle;rounded=0;orthogonalLoop=1;jettySize=auto;html=1;" edge="1" parent="1" source="cmRZkq6fY83uMXrm6ZkH-65" target="cmRZkq6fY83uMXrm6ZkH-62">
          <mxGeometry relative="1" as="geometry" />
        </mxCell>
        <mxCell id="cmRZkq6fY83uMXrm6ZkH-65" value="Sadrzi cudovista" style="shape=rhombus;perimeter=rhombusPerimeter;whiteSpace=wrap;html=1;align=center;" vertex="1" parent="1">
          <mxGeometry x="-677" y="337.5" width="120" height="60" as="geometry" />
        </mxCell>
        <mxCell id="cmRZkq6fY83uMXrm6ZkH-66" value="(1, N)" style="text;html=1;align=center;verticalAlign=middle;resizable=0;points=[];autosize=1;strokeColor=none;fillColor=none;" vertex="1" parent="1">
          <mxGeometry x="-622" y="298.5" width="50" height="30" as="geometry" />
        </mxCell>
        <mxCell id="cmRZkq6fY83uMXrm6ZkH-67" value="(0, N)" style="text;html=1;align=center;verticalAlign=middle;resizable=0;points=[];autosize=1;strokeColor=none;fillColor=none;" vertex="1" parent="1">
          <mxGeometry x="-621" y="410.5" width="50" height="30" as="geometry" />
        </mxCell>
        <mxCell id="cmRZkq6fY83uMXrm6ZkH-68" value="Minion" style="whiteSpace=wrap;html=1;align=center;" vertex="1" parent="1">
          <mxGeometry x="-1020" y="612.5" width="100" height="40" as="geometry" />
        </mxCell>
        <mxCell id="cmRZkq6fY83uMXrm6ZkH-69" value="Pojavljivanje miniona" style="whiteSpace=wrap;html=1;align=center;" vertex="1" parent="1">
          <mxGeometry x="-1020" y="422.5" width="100" height="40" as="geometry" />
        </mxCell>
        <mxCell id="cmRZkq6fY83uMXrm6ZkH-70" value="" style="edgeStyle=orthogonalEdgeStyle;rounded=0;orthogonalLoop=1;jettySize=auto;html=1;" edge="1" parent="1" source="cmRZkq6fY83uMXrm6ZkH-72" target="cmRZkq6fY83uMXrm6ZkH-69">
          <mxGeometry relative="1" as="geometry" />
        </mxCell>
        <mxCell id="cmRZkq6fY83uMXrm6ZkH-71" value="" style="edgeStyle=orthogonalEdgeStyle;rounded=0;orthogonalLoop=1;jettySize=auto;html=1;" edge="1" parent="1" source="cmRZkq6fY83uMXrm6ZkH-72" target="cmRZkq6fY83uMXrm6ZkH-22">
          <mxGeometry relative="1" as="geometry" />
        </mxCell>
        <mxCell id="cmRZkq6fY83uMXrm6ZkH-72" value="Pojavljujue se" style="shape=rhombus;perimeter=rhombusPerimeter;whiteSpace=wrap;html=1;align=center;" vertex="1" parent="1">
          <mxGeometry x="-1030" y="302.5" width="120" height="60" as="geometry" />
        </mxCell>
        <mxCell id="cmRZkq6fY83uMXrm6ZkH-73" value="" style="edgeStyle=orthogonalEdgeStyle;rounded=0;orthogonalLoop=1;jettySize=auto;html=1;" edge="1" parent="1" source="cmRZkq6fY83uMXrm6ZkH-75" target="cmRZkq6fY83uMXrm6ZkH-69">
          <mxGeometry relative="1" as="geometry" />
        </mxCell>
        <mxCell id="cmRZkq6fY83uMXrm6ZkH-74" value="" style="edgeStyle=orthogonalEdgeStyle;rounded=0;orthogonalLoop=1;jettySize=auto;html=1;" edge="1" parent="1" source="cmRZkq6fY83uMXrm6ZkH-75" target="cmRZkq6fY83uMXrm6ZkH-68">
          <mxGeometry relative="1" as="geometry" />
        </mxCell>
        <mxCell id="cmRZkq6fY83uMXrm6ZkH-75" value="Odnosi se na" style="shape=rhombus;perimeter=rhombusPerimeter;whiteSpace=wrap;html=1;align=center;" vertex="1" parent="1">
          <mxGeometry x="-1030" y="512.5" width="120" height="60" as="geometry" />
        </mxCell>
        <mxCell id="cmRZkq6fY83uMXrm6ZkH-76" value="(0, N)" style="text;html=1;align=center;verticalAlign=middle;resizable=0;points=[];autosize=1;strokeColor=none;fillColor=none;" vertex="1" parent="1">
          <mxGeometry x="-965" y="262.5" width="50" height="30" as="geometry" />
        </mxCell>
        <mxCell id="cmRZkq6fY83uMXrm6ZkH-77" value="(1, 1)" style="text;html=1;align=center;verticalAlign=middle;resizable=0;points=[];autosize=1;strokeColor=none;fillColor=none;" vertex="1" parent="1">
          <mxGeometry x="-966" y="396.5" width="50" height="30" as="geometry" />
        </mxCell>
        <mxCell id="cmRZkq6fY83uMXrm6ZkH-78" value="(0, N)" style="text;html=1;align=center;verticalAlign=middle;resizable=0;points=[];autosize=1;strokeColor=none;fillColor=none;" vertex="1" parent="1">
          <mxGeometry x="-972" y="587.5" width="50" height="30" as="geometry" />
        </mxCell>
        <mxCell id="cmRZkq6fY83uMXrm6ZkH-79" value="(1, 1)" style="text;html=1;align=center;verticalAlign=middle;resizable=0;points=[];autosize=1;strokeColor=none;fillColor=none;" vertex="1" parent="1">
          <mxGeometry x="-974" y="459.5" width="50" height="30" as="geometry" />
        </mxCell>
        <mxCell id="cmRZkq6fY83uMXrm6ZkH-80" value="" style="edgeStyle=orthogonalEdgeStyle;rounded=0;orthogonalLoop=1;jettySize=auto;html=1;entryX=0.5;entryY=1;entryDx=0;entryDy=0;" edge="1" parent="1" source="cmRZkq6fY83uMXrm6ZkH-82" target="cmRZkq6fY83uMXrm6ZkH-62">
          <mxGeometry relative="1" as="geometry" />
        </mxCell>
        <mxCell id="cmRZkq6fY83uMXrm6ZkH-81" value="" style="edgeStyle=orthogonalEdgeStyle;rounded=0;orthogonalLoop=1;jettySize=auto;html=1;" edge="1" parent="1" source="cmRZkq6fY83uMXrm6ZkH-82" target="cmRZkq6fY83uMXrm6ZkH-83">
          <mxGeometry relative="1" as="geometry" />
        </mxCell>
        <mxCell id="cmRZkq6fY83uMXrm6ZkH-82" value="Daje" style="shape=rhombus;perimeter=rhombusPerimeter;whiteSpace=wrap;html=1;align=center;" vertex="1" parent="1">
          <mxGeometry x="-677" y="527.5" width="120" height="60" as="geometry" />
        </mxCell>
        <mxCell id="cmRZkq6fY83uMXrm6ZkH-83" value="Pojacanje" style="whiteSpace=wrap;html=1;align=center;" vertex="1" parent="1">
          <mxGeometry x="-667" y="642.5" width="100" height="40" as="geometry" />
        </mxCell>
        <mxCell id="cmRZkq6fY83uMXrm6ZkH-84" value="(0, 1)" style="text;html=1;align=center;verticalAlign=middle;resizable=0;points=[];autosize=1;strokeColor=none;fillColor=none;" vertex="1" parent="1">
          <mxGeometry x="-617" y="477.5" width="50" height="30" as="geometry" />
        </mxCell>
        <mxCell id="cmRZkq6fY83uMXrm6ZkH-85" value="(1, 1)" style="text;html=1;align=center;verticalAlign=middle;resizable=0;points=[];autosize=1;strokeColor=none;fillColor=none;" vertex="1" parent="1">
          <mxGeometry x="-618" y="612.5" width="50" height="30" as="geometry" />
        </mxCell>
        <mxCell id="cmRZkq6fY83uMXrm6ZkH-86" value="" style="edgeStyle=orthogonalEdgeStyle;rounded=0;orthogonalLoop=1;jettySize=auto;html=1;" edge="1" parent="1" source="cmRZkq6fY83uMXrm6ZkH-88" target="cmRZkq6fY83uMXrm6ZkH-89">
          <mxGeometry relative="1" as="geometry" />
        </mxCell>
        <mxCell id="cmRZkq6fY83uMXrm6ZkH-87" style="edgeStyle=orthogonalEdgeStyle;rounded=0;orthogonalLoop=1;jettySize=auto;html=1;entryX=0.5;entryY=1;entryDx=0;entryDy=0;" edge="1" parent="1" source="cmRZkq6fY83uMXrm6ZkH-88" target="cmRZkq6fY83uMXrm6ZkH-1">
          <mxGeometry relative="1" as="geometry" />
        </mxCell>
        <mxCell id="cmRZkq6fY83uMXrm6ZkH-88" value="Sadrzi biljku" style="shape=rhombus;perimeter=rhombusPerimeter;whiteSpace=wrap;html=1;align=center;" vertex="1" parent="1">
          <mxGeometry x="-875" y="136.5" width="120" height="60" as="geometry" />
        </mxCell>
        <mxCell id="cmRZkq6fY83uMXrm6ZkH-89" value="Biljka" style="whiteSpace=wrap;html=1;align=center;" vertex="1" parent="1">
          <mxGeometry x="-865" y="263.5" width="100" height="40" as="geometry" />
        </mxCell>
        <mxCell id="cmRZkq6fY83uMXrm6ZkH-90" value="(1, N)" style="text;html=1;align=center;verticalAlign=middle;resizable=0;points=[];autosize=1;strokeColor=none;fillColor=none;" vertex="1" parent="1">
          <mxGeometry x="-815" y="237.5" width="50" height="30" as="geometry" />
        </mxCell>
        <mxCell id="cmRZkq6fY83uMXrm6ZkH-91" value="(0, N)" style="text;html=1;align=center;verticalAlign=middle;resizable=0;points=[];autosize=1;strokeColor=none;fillColor=none;" vertex="1" parent="1">
          <mxGeometry x="-881" y="26.5" width="50" height="30" as="geometry" />
        </mxCell>
        <mxCell id="cmRZkq6fY83uMXrm6ZkH-92" value="&lt;div&gt;idnex&lt;/div&gt;" style="ellipse;whiteSpace=wrap;html=1;align=center;fontStyle=4;" vertex="1" parent="1">
          <mxGeometry x="-991" y="-513.5" width="100" height="40" as="geometry" />
        </mxCell>
        <mxCell id="cmRZkq6fY83uMXrm6ZkH-93" value="hpnex" style="ellipse;whiteSpace=wrap;html=1;align=center;" vertex="1" parent="1">
          <mxGeometry x="-848" y="-514.5" width="100" height="40" as="geometry" />
        </mxCell>
        <mxCell id="cmRZkq6fY83uMXrm6ZkH-94" value="&lt;div&gt;idmod&lt;/div&gt;" style="ellipse;whiteSpace=wrap;html=1;align=center;fontStyle=4;" vertex="1" parent="1">
          <mxGeometry x="-570" y="-102.5" width="100" height="40" as="geometry" />
        </mxCell>
        <mxCell id="cmRZkq6fY83uMXrm6ZkH-95" value="hpregmod" style="ellipse;whiteSpace=wrap;html=1;align=center;" vertex="1" parent="1">
          <mxGeometry x="-450" y="-102.5" width="100" height="40" as="geometry" />
        </mxCell>
        <mxCell id="cmRZkq6fY83uMXrm6ZkH-96" value="maregmod" style="ellipse;whiteSpace=wrap;html=1;align=center;" vertex="1" parent="1">
          <mxGeometry x="-380" y="-47.5" width="100" height="40" as="geometry" />
        </mxCell>
        <mxCell id="cmRZkq6fY83uMXrm6ZkH-97" value="maxlvmod" style="ellipse;whiteSpace=wrap;html=1;align=center;" vertex="1" parent="1">
          <mxGeometry x="-380" y="32.5" width="100" height="40" as="geometry" />
        </mxCell>
        <mxCell id="cmRZkq6fY83uMXrm6ZkH-98" value="cdrmod" style="ellipse;whiteSpace=wrap;html=1;align=center;" vertex="1" parent="1">
          <mxGeometry x="-470" y="62.5" width="100" height="40" as="geometry" />
        </mxCell>
        <mxCell id="cmRZkq6fY83uMXrm6ZkH-99" value="idbaz" style="ellipse;whiteSpace=wrap;html=1;align=center;fontStyle=4;" vertex="1" parent="1">
          <mxGeometry x="-823" y="-297.5" width="100" height="40" as="geometry" />
        </mxCell>
        <mxCell id="cmRZkq6fY83uMXrm6ZkH-100" value="hpregbaz" style="ellipse;whiteSpace=wrap;html=1;align=center;" vertex="1" parent="1">
          <mxGeometry x="-702" y="-282.5" width="100" height="40" as="geometry" />
        </mxCell>
        <mxCell id="cmRZkq6fY83uMXrm6ZkH-101" value="maregbaz" style="ellipse;whiteSpace=wrap;html=1;align=center;" vertex="1" parent="1">
          <mxGeometry x="-773" y="-219.5" width="100" height="40" as="geometry" />
        </mxCell>
        <mxCell id="cmRZkq6fY83uMXrm6ZkH-102" value="rankmod" style="ellipse;whiteSpace=wrap;html=1;align=center;" vertex="1" parent="1">
          <mxGeometry x="-628" y="42.5" width="100" height="40" as="geometry" />
        </mxCell>
        <mxCell id="cmRZkq6fY83uMXrm6ZkH-103" value="maxplmod" style="ellipse;whiteSpace=wrap;html=1;align=center;" vertex="1" parent="1">
          <mxGeometry x="-560" y="92.5" width="100" height="40" as="geometry" />
        </mxCell>
        <mxCell id="cmRZkq6fY83uMXrm6ZkH-104" style="edgeStyle=orthogonalEdgeStyle;rounded=0;orthogonalLoop=1;jettySize=auto;html=1;endArrow=none;endFill=0;" edge="1" parent="1" source="cmRZkq6fY83uMXrm6ZkH-105">
          <mxGeometry relative="1" as="geometry">
            <mxPoint x="-950" y="-7.5" as="targetPoint" />
            <Array as="points">
              <mxPoint x="-960" y="-39.5" />
              <mxPoint x="-960" y="-7.5" />
            </Array>
          </mxGeometry>
        </mxCell>
        <mxCell id="cmRZkq6fY83uMXrm6ZkH-105" value="&lt;div&gt;idmap&lt;/div&gt;" style="ellipse;whiteSpace=wrap;html=1;align=center;fontStyle=4;" vertex="1" parent="1">
          <mxGeometry x="-1074" y="-59.5" width="100" height="40" as="geometry" />
        </mxCell>
        <mxCell id="cmRZkq6fY83uMXrm6ZkH-106" style="edgeStyle=orthogonalEdgeStyle;rounded=0;orthogonalLoop=1;jettySize=auto;html=1;entryX=0;entryY=0.5;entryDx=0;entryDy=0;endArrow=none;endFill=0;" edge="1" parent="1" source="cmRZkq6fY83uMXrm6ZkH-107" target="cmRZkq6fY83uMXrm6ZkH-1">
          <mxGeometry relative="1" as="geometry" />
        </mxCell>
        <mxCell id="cmRZkq6fY83uMXrm6ZkH-107" value="nazmap" style="ellipse;whiteSpace=wrap;html=1;align=center;" vertex="1" parent="1">
          <mxGeometry x="-1074" y="-7.5" width="100" height="40" as="geometry" />
        </mxCell>
        <mxCell id="cmRZkq6fY83uMXrm6ZkH-108" style="edgeStyle=orthogonalEdgeStyle;rounded=0;orthogonalLoop=1;jettySize=auto;html=1;entryX=0;entryY=0.5;entryDx=0;entryDy=0;endArrow=none;endFill=0;" edge="1" parent="1">
          <mxGeometry relative="1" as="geometry">
            <mxPoint x="-1267.7479327600643" y="-169.5897995385883" as="sourcePoint" />
            <mxPoint x="-1230" y="-129.5" as="targetPoint" />
            <Array as="points">
              <mxPoint x="-1270" y="-169.5" />
              <mxPoint x="-1270" y="-147.5" />
              <mxPoint x="-1250" y="-147.5" />
              <mxPoint x="-1250" y="-129.5" />
            </Array>
          </mxGeometry>
        </mxCell>
        <mxCell id="cmRZkq6fY83uMXrm6ZkH-109" value="idst" style="ellipse;whiteSpace=wrap;html=1;align=center;fontStyle=4;" vertex="1" parent="1">
          <mxGeometry x="-1340" y="-207.5" width="100" height="40" as="geometry" />
        </mxCell>
        <mxCell id="cmRZkq6fY83uMXrm6ZkH-110" style="edgeStyle=orthogonalEdgeStyle;rounded=0;orthogonalLoop=1;jettySize=auto;html=1;entryX=0;entryY=0.5;entryDx=0;entryDy=0;endArrow=none;endFill=0;" edge="1" parent="1" source="cmRZkq6fY83uMXrm6ZkH-111" target="cmRZkq6fY83uMXrm6ZkH-41">
          <mxGeometry relative="1" as="geometry" />
        </mxCell>
        <mxCell id="cmRZkq6fY83uMXrm6ZkH-111" value="tipst" style="ellipse;whiteSpace=wrap;html=1;align=center;" vertex="1" parent="1">
          <mxGeometry x="-1370" y="-157.5" width="100" height="40" as="geometry" />
        </mxCell>
        <mxCell id="cmRZkq6fY83uMXrm6ZkH-112" style="edgeStyle=orthogonalEdgeStyle;rounded=0;orthogonalLoop=1;jettySize=auto;html=1;entryX=0;entryY=0.5;entryDx=0;entryDy=0;endArrow=none;endFill=0;" edge="1" parent="1" source="cmRZkq6fY83uMXrm6ZkH-113" target="cmRZkq6fY83uMXrm6ZkH-41">
          <mxGeometry relative="1" as="geometry">
            <Array as="points">
              <mxPoint x="-1250" y="-119.5" />
              <mxPoint x="-1250" y="-129.5" />
            </Array>
          </mxGeometry>
        </mxCell>
        <mxCell id="cmRZkq6fY83uMXrm6ZkH-113" value="hpst" style="ellipse;whiteSpace=wrap;html=1;align=center;" vertex="1" parent="1">
          <mxGeometry x="-1350" y="-99.5" width="100" height="40" as="geometry" />
        </mxCell>
        <mxCell id="cmRZkq6fY83uMXrm6ZkH-114" value="tipst" style="text;html=1;align=center;verticalAlign=middle;resizable=0;points=[];autosize=1;strokeColor=none;fillColor=none;" vertex="1" parent="1">
          <mxGeometry x="-1280" y="-44.5" width="50" height="30" as="geometry" />
        </mxCell>
        <mxCell id="cmRZkq6fY83uMXrm6ZkH-115" style="edgeStyle=orthogonalEdgeStyle;rounded=0;orthogonalLoop=1;jettySize=auto;html=1;endArrow=none;endFill=0;" edge="1" parent="1" source="cmRZkq6fY83uMXrm6ZkH-116">
          <mxGeometry relative="1" as="geometry">
            <mxPoint x="-1199.9999999999998" y="86.5" as="targetPoint" />
          </mxGeometry>
        </mxCell>
        <mxCell id="cmRZkq6fY83uMXrm6ZkH-116" value="adkul" style="ellipse;whiteSpace=wrap;html=1;align=center;" vertex="1" parent="1">
          <mxGeometry x="-1370" y="66.5" width="100" height="40" as="geometry" />
        </mxCell>
        <mxCell id="cmRZkq6fY83uMXrm6ZkH-117" style="edgeStyle=orthogonalEdgeStyle;rounded=0;orthogonalLoop=1;jettySize=auto;html=1;entryX=0.299;entryY=-0.001;entryDx=0;entryDy=0;entryPerimeter=0;endArrow=none;endFill=0;" edge="1" parent="1" source="cmRZkq6fY83uMXrm6ZkH-118" target="cmRZkq6fY83uMXrm6ZkH-42">
          <mxGeometry relative="1" as="geometry" />
        </mxCell>
        <mxCell id="cmRZkq6fY83uMXrm6ZkH-118" value="askul" style="ellipse;whiteSpace=wrap;html=1;align=center;" vertex="1" parent="1">
          <mxGeometry x="-1290" y="26.5" width="100" height="40" as="geometry" />
        </mxCell>
        <mxCell id="cmRZkq6fY83uMXrm6ZkH-119" style="edgeStyle=orthogonalEdgeStyle;rounded=0;orthogonalLoop=1;jettySize=auto;html=1;entryX=0;entryY=1;entryDx=0;entryDy=0;endArrow=none;endFill=0;" edge="1" parent="1" source="cmRZkq6fY83uMXrm6ZkH-120" target="cmRZkq6fY83uMXrm6ZkH-22">
          <mxGeometry relative="1" as="geometry" />
        </mxCell>
        <mxCell id="cmRZkq6fY83uMXrm6ZkH-120" value="&lt;div&gt;idstaz&lt;/div&gt;" style="ellipse;whiteSpace=wrap;html=1;align=center;fontStyle=4;" vertex="1" parent="1">
          <mxGeometry x="-1180" y="258.5" width="100" height="40" as="geometry" />
        </mxCell>
        <mxCell id="cmRZkq6fY83uMXrm6ZkH-121" style="edgeStyle=orthogonalEdgeStyle;rounded=0;orthogonalLoop=1;jettySize=auto;html=1;entryX=0;entryY=1;entryDx=0;entryDy=0;endArrow=none;endFill=0;" edge="1" parent="1" source="cmRZkq6fY83uMXrm6ZkH-122" target="cmRZkq6fY83uMXrm6ZkH-22">
          <mxGeometry relative="1" as="geometry">
            <Array as="points">
              <mxPoint x="-1020" y="312.5" />
            </Array>
          </mxGeometry>
        </mxCell>
        <mxCell id="cmRZkq6fY83uMXrm6ZkH-122" value="nazstaz" style="ellipse;whiteSpace=wrap;html=1;align=center;" vertex="1" parent="1">
          <mxGeometry x="-1150" y="312.5" width="100" height="40" as="geometry" />
        </mxCell>
        <mxCell id="cmRZkq6fY83uMXrm6ZkH-123" style="edgeStyle=orthogonalEdgeStyle;rounded=0;orthogonalLoop=1;jettySize=auto;html=1;entryX=0;entryY=0.5;entryDx=0;entryDy=0;endArrow=none;endFill=0;" edge="1" parent="1" source="cmRZkq6fY83uMXrm6ZkH-124" target="cmRZkq6fY83uMXrm6ZkH-69">
          <mxGeometry relative="1" as="geometry" />
        </mxCell>
        <mxCell id="cmRZkq6fY83uMXrm6ZkH-124" value="&lt;div&gt;idpm&lt;/div&gt;" style="ellipse;whiteSpace=wrap;html=1;align=center;fontStyle=4;" vertex="1" parent="1">
          <mxGeometry x="-1150" y="402.5" width="100" height="40" as="geometry" />
        </mxCell>
        <mxCell id="cmRZkq6fY83uMXrm6ZkH-125" style="edgeStyle=orthogonalEdgeStyle;rounded=0;orthogonalLoop=1;jettySize=auto;html=1;entryX=0;entryY=0.5;entryDx=0;entryDy=0;endArrow=none;endFill=0;" edge="1" parent="1" source="cmRZkq6fY83uMXrm6ZkH-126" target="cmRZkq6fY83uMXrm6ZkH-69">
          <mxGeometry relative="1" as="geometry" />
        </mxCell>
        <mxCell id="cmRZkq6fY83uMXrm6ZkH-126" value="vrpm" style="ellipse;whiteSpace=wrap;html=1;align=center;" vertex="1" parent="1">
          <mxGeometry x="-1150" y="456.5" width="100" height="40" as="geometry" />
        </mxCell>
        <mxCell id="cmRZkq6fY83uMXrm6ZkH-127" style="edgeStyle=orthogonalEdgeStyle;rounded=0;orthogonalLoop=1;jettySize=auto;html=1;entryX=0;entryY=0.5;entryDx=0;entryDy=0;endArrow=none;endFill=0;" edge="1" parent="1" source="cmRZkq6fY83uMXrm6ZkH-128" target="cmRZkq6fY83uMXrm6ZkH-68">
          <mxGeometry relative="1" as="geometry">
            <Array as="points">
              <mxPoint x="-1020" y="622.5" />
            </Array>
          </mxGeometry>
        </mxCell>
        <mxCell id="cmRZkq6fY83uMXrm6ZkH-128" value="idmin" style="ellipse;whiteSpace=wrap;html=1;align=center;fontStyle=4;" vertex="1" parent="1">
          <mxGeometry x="-1140" y="582.5" width="100" height="40" as="geometry" />
        </mxCell>
        <mxCell id="cmRZkq6fY83uMXrm6ZkH-129" style="edgeStyle=orthogonalEdgeStyle;rounded=0;orthogonalLoop=1;jettySize=auto;html=1;endArrow=none;endFill=0;" edge="1" parent="1" source="cmRZkq6fY83uMXrm6ZkH-130">
          <mxGeometry relative="1" as="geometry">
            <mxPoint x="-1020" y="632.5" as="targetPoint" />
            <Array as="points">
              <mxPoint x="-1040" y="632.5" />
            </Array>
          </mxGeometry>
        </mxCell>
        <mxCell id="cmRZkq6fY83uMXrm6ZkH-130" value="hpmin" style="ellipse;whiteSpace=wrap;html=1;align=center;" vertex="1" parent="1">
          <mxGeometry x="-1140" y="652.5" width="100" height="40" as="geometry" />
        </mxCell>
        <mxCell id="cmRZkq6fY83uMXrm6ZkH-131" style="edgeStyle=orthogonalEdgeStyle;rounded=0;orthogonalLoop=1;jettySize=auto;html=1;endArrow=none;endFill=0;" edge="1" parent="1" source="cmRZkq6fY83uMXrm6ZkH-132">
          <mxGeometry relative="1" as="geometry">
            <mxPoint x="-970" y="652.5" as="targetPoint" />
            <Array as="points">
              <mxPoint x="-970" y="672.5" />
            </Array>
          </mxGeometry>
        </mxCell>
        <mxCell id="cmRZkq6fY83uMXrm6ZkH-132" value="asmin" style="ellipse;whiteSpace=wrap;html=1;align=center;" vertex="1" parent="1">
          <mxGeometry x="-906" y="662.5" width="100" height="40" as="geometry" />
        </mxCell>
        <mxCell id="cmRZkq6fY83uMXrm6ZkH-133" style="edgeStyle=orthogonalEdgeStyle;rounded=0;orthogonalLoop=1;jettySize=auto;html=1;entryX=0.5;entryY=1;entryDx=0;entryDy=0;endArrow=none;endFill=0;" edge="1" parent="1" source="cmRZkq6fY83uMXrm6ZkH-134" target="cmRZkq6fY83uMXrm6ZkH-68">
          <mxGeometry relative="1" as="geometry" />
        </mxCell>
        <mxCell id="cmRZkq6fY83uMXrm6ZkH-134" value="admin" style="ellipse;whiteSpace=wrap;html=1;align=center;" vertex="1" parent="1">
          <mxGeometry x="-1024" y="692.5" width="100" height="40" as="geometry" />
        </mxCell>
        <mxCell id="cmRZkq6fY83uMXrm6ZkH-135" style="edgeStyle=orthogonalEdgeStyle;rounded=0;orthogonalLoop=1;jettySize=auto;html=1;entryX=1;entryY=0.5;entryDx=0;entryDy=0;endArrow=none;endFill=0;" edge="1" parent="1" target="cmRZkq6fY83uMXrm6ZkH-23">
          <mxGeometry relative="1" as="geometry">
            <mxPoint x="-523" y="240.5" as="sourcePoint" />
          </mxGeometry>
        </mxCell>
        <mxCell id="cmRZkq6fY83uMXrm6ZkH-136" value="&lt;div&gt;idddz&lt;/div&gt;" style="ellipse;whiteSpace=wrap;html=1;align=center;fontStyle=4;" vertex="1" parent="1">
          <mxGeometry x="-529" y="222.5" width="100" height="40" as="geometry" />
        </mxCell>
        <mxCell id="cmRZkq6fY83uMXrm6ZkH-137" style="edgeStyle=orthogonalEdgeStyle;rounded=0;orthogonalLoop=1;jettySize=auto;html=1;entryX=1;entryY=0.5;entryDx=0;entryDy=0;endArrow=none;endFill=0;" edge="1" parent="1" source="cmRZkq6fY83uMXrm6ZkH-138" target="cmRZkq6fY83uMXrm6ZkH-23">
          <mxGeometry relative="1" as="geometry" />
        </mxCell>
        <mxCell id="cmRZkq6fY83uMXrm6ZkH-138" value="nazddz" style="ellipse;whiteSpace=wrap;html=1;align=center;" vertex="1" parent="1">
          <mxGeometry x="-529" y="275.5" width="100" height="40" as="geometry" />
        </mxCell>
        <mxCell id="cmRZkq6fY83uMXrm6ZkH-139" style="edgeStyle=orthogonalEdgeStyle;rounded=0;orthogonalLoop=1;jettySize=auto;html=1;entryX=1;entryY=0.5;entryDx=0;entryDy=0;endArrow=none;endFill=0;" edge="1" parent="1" source="cmRZkq6fY83uMXrm6ZkH-140" target="cmRZkq6fY83uMXrm6ZkH-62">
          <mxGeometry relative="1" as="geometry" />
        </mxCell>
        <mxCell id="cmRZkq6fY83uMXrm6ZkH-140" value="&lt;div&gt;idcud&lt;/div&gt;" style="ellipse;whiteSpace=wrap;html=1;align=center;fontStyle=4;" vertex="1" parent="1">
          <mxGeometry x="-534" y="370.5" width="100" height="40" as="geometry" />
        </mxCell>
        <mxCell id="cmRZkq6fY83uMXrm6ZkH-141" style="edgeStyle=orthogonalEdgeStyle;rounded=0;orthogonalLoop=1;jettySize=auto;html=1;entryX=0.998;entryY=0.608;entryDx=0;entryDy=0;entryPerimeter=0;endArrow=none;endFill=0;" edge="1" parent="1" source="cmRZkq6fY83uMXrm6ZkH-142" target="cmRZkq6fY83uMXrm6ZkH-62">
          <mxGeometry relative="1" as="geometry">
            <Array as="points">
              <mxPoint x="-559" y="492.5" />
              <mxPoint x="-559" y="457.5" />
              <mxPoint x="-567" y="457.5" />
            </Array>
          </mxGeometry>
        </mxCell>
        <mxCell id="cmRZkq6fY83uMXrm6ZkH-142" value="nazcud" style="ellipse;whiteSpace=wrap;html=1;align=center;" vertex="1" parent="1">
          <mxGeometry x="-539" y="472.5" width="100" height="40" as="geometry" />
        </mxCell>
        <mxCell id="cmRZkq6fY83uMXrm6ZkH-143" style="edgeStyle=orthogonalEdgeStyle;rounded=0;orthogonalLoop=1;jettySize=auto;html=1;endArrow=none;endFill=0;" edge="1" parent="1" source="cmRZkq6fY83uMXrm6ZkH-144">
          <mxGeometry relative="1" as="geometry">
            <mxPoint x="-664" y="457.49999999999955" as="targetPoint" />
            <Array as="points">
              <mxPoint x="-684" y="457.5" />
            </Array>
          </mxGeometry>
        </mxCell>
        <mxCell id="cmRZkq6fY83uMXrm6ZkH-144" value="hpcud" style="ellipse;whiteSpace=wrap;html=1;align=center;" vertex="1" parent="1">
          <mxGeometry x="-784" y="478.5" width="100" height="40" as="geometry" />
        </mxCell>
        <mxCell id="cmRZkq6fY83uMXrm6ZkH-145" style="edgeStyle=orthogonalEdgeStyle;rounded=0;orthogonalLoop=1;jettySize=auto;html=1;endArrow=none;endFill=0;" edge="1" parent="1" source="cmRZkq6fY83uMXrm6ZkH-146">
          <mxGeometry relative="1" as="geometry">
            <mxPoint x="-669.9999999999998" y="462.5" as="targetPoint" />
          </mxGeometry>
        </mxCell>
        <mxCell id="cmRZkq6fY83uMXrm6ZkH-146" value="ascud" style="ellipse;whiteSpace=wrap;html=1;align=center;" vertex="1" parent="1">
          <mxGeometry x="-785" y="413.5" width="100" height="40" as="geometry" />
        </mxCell>
        <mxCell id="cmRZkq6fY83uMXrm6ZkH-147" style="edgeStyle=orthogonalEdgeStyle;rounded=0;orthogonalLoop=1;jettySize=auto;html=1;endArrow=none;endFill=0;" edge="1" parent="1" source="cmRZkq6fY83uMXrm6ZkH-148">
          <mxGeometry relative="1" as="geometry">
            <mxPoint x="-563.9999999999998" y="457.5" as="targetPoint" />
          </mxGeometry>
        </mxCell>
        <mxCell id="cmRZkq6fY83uMXrm6ZkH-148" value="adcud" style="ellipse;whiteSpace=wrap;html=1;align=center;" vertex="1" parent="1">
          <mxGeometry x="-514" y="421.5" width="100" height="40" as="geometry" />
        </mxCell>
        <mxCell id="cmRZkq6fY83uMXrm6ZkH-149" style="edgeStyle=orthogonalEdgeStyle;rounded=0;orthogonalLoop=1;jettySize=auto;html=1;endArrow=none;endFill=0;" edge="1" parent="1" source="cmRZkq6fY83uMXrm6ZkH-150">
          <mxGeometry relative="1" as="geometry">
            <mxPoint x="-524" y="697.5" as="targetPoint" />
          </mxGeometry>
        </mxCell>
        <mxCell id="cmRZkq6fY83uMXrm6ZkH-150" value="&lt;div&gt;idpoj&lt;/div&gt;" style="ellipse;whiteSpace=wrap;html=1;align=center;fontStyle=4;" vertex="1" parent="1">
          <mxGeometry x="-534" y="642.5" width="100" height="40" as="geometry" />
        </mxCell>
        <mxCell id="cmRZkq6fY83uMXrm6ZkH-151" style="edgeStyle=orthogonalEdgeStyle;rounded=0;orthogonalLoop=1;jettySize=auto;html=1;entryX=0.75;entryY=1;entryDx=0;entryDy=0;endArrow=none;endFill=0;" edge="1" parent="1" source="cmRZkq6fY83uMXrm6ZkH-152" target="cmRZkq6fY83uMXrm6ZkH-83">
          <mxGeometry relative="1" as="geometry" />
        </mxCell>
        <mxCell id="cmRZkq6fY83uMXrm6ZkH-152" value="durpoj" style="ellipse;whiteSpace=wrap;html=1;align=center;" vertex="1" parent="1">
          <mxGeometry x="-709" y="707.5" width="100" height="40" as="geometry" />
        </mxCell>
        <mxCell id="cmRZkq6fY83uMXrm6ZkH-153" style="edgeStyle=orthogonalEdgeStyle;rounded=0;orthogonalLoop=1;jettySize=auto;html=1;entryX=0.75;entryY=1;entryDx=0;entryDy=0;endArrow=none;endFill=0;" edge="1" parent="1" source="cmRZkq6fY83uMXrm6ZkH-154" target="cmRZkq6fY83uMXrm6ZkH-83">
          <mxGeometry relative="1" as="geometry" />
        </mxCell>
        <mxCell id="cmRZkq6fY83uMXrm6ZkH-154" value="efpoj" style="ellipse;whiteSpace=wrap;html=1;align=center;" vertex="1" parent="1">
          <mxGeometry x="-573" y="717.5" width="100" height="40" as="geometry" />
        </mxCell>
        <mxCell id="cmRZkq6fY83uMXrm6ZkH-155" style="edgeStyle=orthogonalEdgeStyle;rounded=0;orthogonalLoop=1;jettySize=auto;html=1;entryX=0.5;entryY=1;entryDx=0;entryDy=0;endArrow=none;endFill=0;" edge="1" parent="1" source="cmRZkq6fY83uMXrm6ZkH-156" target="cmRZkq6fY83uMXrm6ZkH-89">
          <mxGeometry relative="1" as="geometry" />
        </mxCell>
        <mxCell id="cmRZkq6fY83uMXrm6ZkH-156" value="&lt;div&gt;idbilj&lt;/div&gt;" style="ellipse;whiteSpace=wrap;html=1;align=center;fontStyle=4;" vertex="1" parent="1">
          <mxGeometry x="-935" y="357.5" width="100" height="40" as="geometry" />
        </mxCell>
        <mxCell id="cmRZkq6fY83uMXrm6ZkH-157" style="edgeStyle=orthogonalEdgeStyle;rounded=0;orthogonalLoop=1;jettySize=auto;html=1;entryX=0.5;entryY=1;entryDx=0;entryDy=0;endArrow=none;endFill=0;" edge="1" parent="1" source="cmRZkq6fY83uMXrm6ZkH-158" target="cmRZkq6fY83uMXrm6ZkH-89">
          <mxGeometry relative="1" as="geometry" />
        </mxCell>
        <mxCell id="cmRZkq6fY83uMXrm6ZkH-158" value="nazbilj" style="ellipse;whiteSpace=wrap;html=1;align=center;" vertex="1" parent="1">
          <mxGeometry x="-826" y="357.5" width="100" height="40" as="geometry" />
        </mxCell>
        <mxCell id="cmRZkq6fY83uMXrm6ZkH-159" style="edgeStyle=orthogonalEdgeStyle;rounded=0;orthogonalLoop=1;jettySize=auto;html=1;entryX=1;entryY=0.5;entryDx=0;entryDy=0;endArrow=none;endFill=0;" edge="1" parent="1" source="cmRZkq6fY83uMXrm6ZkH-160" target="cmRZkq6fY83uMXrm6ZkH-89">
          <mxGeometry relative="1" as="geometry" />
        </mxCell>
        <mxCell id="cmRZkq6fY83uMXrm6ZkH-160" value="efbilj" style="ellipse;whiteSpace=wrap;html=1;align=center;" vertex="1" parent="1">
          <mxGeometry x="-765" y="312.5" width="100" height="40" as="geometry" />
        </mxCell>
        <mxCell id="cmRZkq6fY83uMXrm6ZkH-163" style="edgeStyle=orthogonalEdgeStyle;rounded=0;orthogonalLoop=1;jettySize=auto;html=1;entryX=0.5;entryY=0;entryDx=0;entryDy=0;" edge="1" parent="1" source="cmRZkq6fY83uMXrm6ZkH-161" target="2M90Gd991hqFJUde-eGh-48">
          <mxGeometry relative="1" as="geometry" />
        </mxCell>
        <mxCell id="cmRZkq6fY83uMXrm6ZkH-164" style="edgeStyle=orthogonalEdgeStyle;rounded=0;orthogonalLoop=1;jettySize=auto;html=1;entryX=1;entryY=0.75;entryDx=0;entryDy=0;" edge="1" parent="1" source="cmRZkq6fY83uMXrm6ZkH-161" target="cmRZkq6fY83uMXrm6ZkH-1">
          <mxGeometry relative="1" as="geometry">
            <Array as="points">
              <mxPoint x="-230" y="180" />
              <mxPoint x="-740" y="180" />
              <mxPoint x="-740" y="7" />
            </Array>
          </mxGeometry>
        </mxCell>
        <mxCell id="cmRZkq6fY83uMXrm6ZkH-161" value="Se igra na" style="shape=rhombus;perimeter=rhombusPerimeter;whiteSpace=wrap;html=1;align=center;" vertex="1" parent="1">
          <mxGeometry x="-290" y="429.5" width="120" height="60" as="geometry" />
        </mxCell>
      </root>
    </mxGraphModel>
  </diagram>
</mxfile>
